<svg width="18" height="14" viewBox="0 0 18 14" fill="none" xmlns="http://www.w3.org/2000/svg">
<path d="M16.5 3.66668C16.279 3.66668 16.067 3.75447 15.9107 3.91075C15.7545 4.06703 15.6667 4.279 15.6667 4.50001V11.1667C15.6667 11.3877 15.5789 11.5997 15.4226 11.7559C15.2663 11.9122 15.0543 12 14.8333 12H3.16666C2.94564 12 2.73368 11.9122 2.5774 11.7559C2.42112 11.5997 2.33332 11.3877 2.33332 11.1667V3.17501L7.23332 8.07501C7.70207 8.54318 8.33749 8.80614 8.99999 8.80614C9.66249 8.80614 10.2979 8.54318 10.7667 8.07501L13.7583 5.09168C13.9152 4.93476 14.0034 4.72193 14.0034 4.50001C14.0034 4.27809 13.9152 4.06526 13.7583 3.90834C13.6014 3.75142 13.3886 3.66327 13.1667 3.66327C12.9447 3.66327 12.7319 3.75142 12.575 3.90834L9.59166 6.90001C9.51419 6.97812 9.42202 7.04011 9.32047 7.08242C9.21892 7.12473 9.11 7.14651 8.99999 7.14651C8.88998 7.14651 8.78106 7.12473 8.67951 7.08242C8.57796 7.04011 8.48579 6.97812 8.40832 6.90001L3.50832 2.00001H9.83332C10.0543 2.00001 10.2663 1.91221 10.4226 1.75593C10.5789 1.59965 10.6667 1.38769 10.6667 1.16668C10.6667 0.945663 10.5789 0.733702 10.4226 0.577421C10.2663 0.421141 10.0543 0.333344 9.83332 0.333344H3.16666C2.50362 0.333344 1.86773 0.596736 1.39889 1.06558C0.930049 1.53442 0.666656 2.1703 0.666656 2.83334V11.1667C0.666656 11.8297 0.930049 12.4656 1.39889 12.9344C1.86773 13.4033 2.50362 13.6667 3.16666 13.6667H14.8333C15.4964 13.6667 16.1322 13.4033 16.6011 12.9344C17.0699 12.4656 17.3333 11.8297 17.3333 11.1667V4.50001C17.3333 4.279 17.2455 4.06703 17.0892 3.91075C16.933 3.75447 16.721 3.66668 16.5 3.66668ZM13.1667 2.00001H16.5C16.721 2.00001 16.933 1.91221 17.0892 1.75593C17.2455 1.59965 17.3333 1.38769 17.3333 1.16668C17.3333 0.945663 17.2455 0.733702 17.0892 0.577421C16.933 0.421141 16.721 0.333344 16.5 0.333344H13.1667C12.9456 0.333344 12.7337 0.421141 12.5774 0.577421C12.4211 0.733702 12.3333 0.945663 12.3333 1.16668C12.3333 1.38769 12.4211 1.59965 12.5774 1.75593C12.7337 1.91221 12.9456 2.00001 13.1667 2.00001Z" fill="#5372F0"/>
</svg>
