<svg width="16" height="18" viewBox="0 0 16 18" fill="none" xmlns="http://www.w3.org/2000/svg">
<path d="M6.55274 15.3772C6.55272 15.2672 6.52852 15.1585 6.48183 15.0589C6.43515 14.9593 6.36713 14.8712 6.2826 14.8009C6.19807 14.7305 6.0991 14.6796 5.99269 14.6517C5.88629 14.6238 5.77505 14.6197 5.66688 14.6396C4.68507 14.8198 3.44545 14.8469 3.11585 13.9211C2.82846 13.2041 2.35241 12.5783 1.73817 12.1099C1.69434 12.086 1.65257 12.0586 1.61329 12.0278C1.55954 11.886 1.46405 11.7639 1.33944 11.6774C1.21483 11.591 1.06694 11.5444 0.915292 11.5437H0.911632C0.713331 11.5436 0.523078 11.6221 0.382515 11.762C0.241953 11.9019 0.16253 12.0917 0.161632 12.29C0.158699 12.9016 0.769882 13.2935 1.01783 13.426C1.31021 13.7198 1.5452 14.0656 1.7107 14.4456C1.9839 15.2131 2.77784 16.3777 5.06007 16.2276C5.06082 16.2539 5.06153 16.2788 5.0619 16.3015L5.06519 16.5022C5.06519 16.7011 5.14421 16.8919 5.28486 17.0325C5.42551 17.1732 5.61628 17.2522 5.81519 17.2522C6.0141 17.2522 6.20487 17.1732 6.34552 17.0325C6.48617 16.8919 6.56519 16.7011 6.56519 16.5022L6.56153 16.2634C6.55787 16.1213 6.55274 15.9155 6.55274 15.3772ZM14.553 4.03267C14.5768 3.93892 14.6002 3.83492 14.6207 3.71773C14.742 2.88192 14.6363 2.02888 14.3146 1.24798C14.274 1.14618 14.2116 1.05449 14.1319 0.979335C14.0521 0.904182 13.9568 0.847387 13.8528 0.812931C13.5858 0.722841 12.6 0.545593 10.7147 1.75043C9.14764 1.38165 7.51634 1.38165 5.94924 1.75043C4.07167 0.563241 3.09095 0.724341 2.82655 0.809301C2.71994 0.842361 2.62209 0.898856 2.54016 0.974644C2.45822 1.05043 2.39429 1.14359 2.35303 1.2473C2.02476 2.04319 1.92016 2.91363 2.05054 3.76463C2.06886 3.86058 2.08863 3.94921 2.10914 4.0305C1.48782 4.85808 1.15687 5.86752 1.16761 6.90232C1.16559 7.1332 1.17623 7.36401 1.19947 7.59373C1.44997 11.0456 3.69997 12.082 5.26771 12.438C5.23512 12.5317 5.20546 12.6321 5.17909 12.7383C5.13209 12.9312 5.16354 13.135 5.26654 13.3048C5.36953 13.4746 5.53567 13.5967 5.72851 13.6442C5.92136 13.6917 6.12518 13.6608 6.29527 13.5582C6.46536 13.4557 6.58785 13.2899 6.63587 13.0972C6.68359 12.8473 6.80591 12.6177 6.98671 12.4387C7.09602 12.343 7.17517 12.2176 7.21452 12.0777C7.25387 11.9379 7.25173 11.7896 7.20835 11.6509C7.16498 11.5122 7.08223 11.3892 6.9702 11.2967C6.85816 11.2042 6.72165 11.1462 6.57728 11.1299C3.98671 10.834 2.86207 9.77855 2.69288 7.45604C2.67414 7.27209 2.66571 7.08723 2.66761 6.90233C2.65558 6.16482 2.89924 5.44589 3.35719 4.86766C3.4032 4.80738 3.45221 4.74944 3.50404 4.69408C3.59586 4.59133 3.6576 4.46527 3.68247 4.32973C3.70734 4.19419 3.69439 4.05443 3.64504 3.92577C3.59444 3.79042 3.55548 3.65099 3.52858 3.50902C3.46748 3.1053 3.48752 2.69346 3.58753 2.29759C4.23938 2.48169 4.85287 2.78137 5.39878 3.18235C5.48906 3.24248 5.59121 3.28249 5.69831 3.29968C5.80541 3.31687 5.91495 3.31082 6.01951 3.28196C7.53535 2.87059 9.13345 2.87084 10.6492 3.28271C10.7543 3.31154 10.8644 3.31724 10.9719 3.29941C11.0795 3.28158 11.1819 3.24065 11.2721 3.17944C11.8154 2.7768 12.4263 2.47444 13.076 2.28662C13.1756 2.67299 13.1979 3.07521 13.1416 3.47021C13.1144 3.62586 13.072 3.77846 13.0149 3.92578C12.9655 4.05444 12.9526 4.19421 12.9774 4.32974C13.0023 4.46528 13.064 4.59134 13.1559 4.69409C13.2137 4.75927 13.2716 4.82959 13.3236 4.8955C13.7783 5.46394 14.0178 6.17461 14 6.90232C14.0014 7.09703 13.992 7.29166 13.9718 7.48533C13.8067 9.77707 12.6776 10.8332 10.075 11.1299C9.93055 11.1463 9.79403 11.2044 9.68201 11.2969C9.56998 11.3895 9.48727 11.5127 9.44394 11.6514C9.4006 11.7902 9.39851 11.9385 9.43792 12.0784C9.47732 12.2183 9.55653 12.3437 9.6659 12.4394C9.85238 12.6232 9.97496 12.862 10.0156 13.1206C10.0663 13.3214 10.0896 13.5281 10.0849 13.7351V15.4856C10.0775 15.9712 10.0775 16.3352 10.0775 16.5022C10.0775 16.7011 10.1565 16.8919 10.2972 17.0325C10.4378 17.1732 10.6286 17.2522 10.8275 17.2522C11.0264 17.2522 11.2172 17.1732 11.3578 17.0325C11.4985 16.8919 11.5775 16.7011 11.5775 16.5022C11.5775 16.3396 11.5775 15.9829 11.5848 15.4973V13.7351C11.5909 13.4035 11.5518 13.0725 11.4687 12.7514C11.445 12.646 11.4159 12.5419 11.3816 12.4394C12.5225 12.2499 13.5592 11.6617 14.3071 10.7794C15.0549 9.89715 15.4654 8.77814 15.4656 7.62157C15.4903 7.38264 15.5018 7.14252 15.5 6.90232C15.5167 5.8664 15.183 4.8552 14.553 4.03267Z" fill="#5372F0"/>
</svg>
