<svg width="512" height="512" viewBox="0 0 512 512" fill="none" xmlns="http://www.w3.org/2000/svg">
<path fill-rule="evenodd" clip-rule="evenodd" d="M10.8999 128.83V496C10.8999 498.76 13.1399 501 15.8999 501H383.07C385.83 501 388.07 498.76 388.07 496V312.41C388.07 309.65 385.83 307.41 383.07 307.41H330.43C327.43 299.73 327.47 291.05 327.21 281.41C327.17 261.61 311.08 245.55 291.28 245.55C271.46 245.55 255.37 261.63 255.35 281.44C255.08 291.05 255.12 299.73 252.12 307.41H204.48V256.57C204.48 256.48 204.48 256.38 204.48 256.29C204.43 255.46 204.19 254.69 203.8 254.01H203.79L203.78 253.99L203.76 253.95L203.74 253.93L203.73 253.9L203.7 253.86V253.85L203.69 253.84C203.27 253.18 202.69 252.62 201.97 252.2C201.88 252.15 201.8 252.11 201.7 252.06C192.1 247.19 181.12 246.9 168.69 246.55C168.65 246.55 168.6 246.55 168.55 246.55C154.24 246.55 142.62 234.93 142.62 220.62C142.62 206.31 154.24 194.69 168.55 194.69C168.6 194.69 168.65 194.69 168.69 194.69C181.12 194.34 192.1 194.05 201.7 189.18C201.8 189.14 201.88 189.09 201.97 189.04C202.69 188.63 203.27 188.06 203.69 187.4H203.7V187.38L203.73 187.34L203.74 187.32L203.76 187.3L203.78 187.25L203.79 187.24L203.8 187.23C204.19 186.56 204.43 185.78 204.48 184.96C204.48 184.86 204.48 184.77 204.48 184.67V128.83C204.48 126.07 202.24 123.83 199.48 123.83H15.8999C13.1399 123.83 10.8999 126.07 10.8999 128.83ZM194.48 368.26V317.41H146.84C143.84 325.1 143.89 333.78 143.62 343.39C143.6 363.2 127.51 379.28 107.69 379.28C87.8799 379.28 71.8 363.22 71.76 343.42C71.49 333.78 71.54 325.1 68.54 317.41H20.8999V491H194.48V440.16C194.48 440.06 194.49 439.97 194.49 439.87C194.53 439.05 194.77 438.27 195.17 437.6V437.59L195.18 437.58L195.21 437.53L195.22 437.51L195.24 437.49L195.26 437.45L195.27 437.43H195.28C195.7 436.77 196.28 436.2 196.99 435.79C197.08 435.74 197.17 435.69 197.26 435.65C206.87 430.78 217.84 430.49 230.27 430.14C230.32 430.14 230.37 430.14 230.41 430.14C244.72 430.14 256.34 418.52 256.34 404.21C256.34 389.9 244.72 378.28 230.41 378.28C230.37 378.28 230.32 378.28 230.27 378.28C217.84 377.93 206.87 377.63 197.26 372.77L197.21 372.74C197.17 372.72 197.14 372.7 197.1 372.68L196.99 372.62C196.28 372.21 195.7 371.65 195.28 370.99L195.27 370.98L195.26 370.97L195.24 370.93L195.22 370.9L195.21 370.88L195.18 370.84L195.17 370.82C195.05 370.61 194.94 370.4 194.85 370.18C194.75 369.93 194.67 369.68 194.61 369.42L194.58 369.3C194.57 369.24 194.56 369.19 194.55 369.14L194.54 369.05L194.52 368.93V368.87C194.5 368.76 194.49 368.65 194.49 368.54C194.48 368.45 194.48 368.35 194.48 368.26ZM327.23 317.41C327.13 317.41 327.03 317.41 326.94 317.41C326.11 317.37 325.34 317.12 324.67 316.73L324.66 316.72H324.65L324.6 316.69L324.58 316.68L324.56 316.66L324.51 316.63H324.5L324.49 316.62C323.84 316.2 323.27 315.62 322.86 314.9C322.81 314.82 322.76 314.73 322.72 314.64C317.85 305.03 317.56 294.05 317.21 281.62C317.21 281.58 317.21 281.53 317.21 281.48C317.21 267.17 305.59 255.55 291.28 255.55C276.96 255.55 265.35 267.17 265.35 281.48C265.35 281.53 265.35 281.58 265.34 281.62C264.99 294.05 264.7 305.03 259.84 314.64C259.79 314.73 259.74 314.82 259.69 314.9C259.28 315.62 258.72 316.2 258.06 316.62L258.05 316.63H258.04L257.99 316.66L257.97 316.68L257.95 316.69L257.9 316.72H257.89L257.88 316.73C257.21 317.12 256.44 317.37 255.61 317.41C255.52 317.41 255.42 317.41 255.33 317.41H204.48V365.05C212.17 368.06 220.85 368.01 230.45 368.28C250.26 368.3 266.34 384.39 266.34 404.21C266.34 424.01 250.28 440.1 230.49 440.14C220.85 440.41 212.17 440.36 204.48 443.36V491H378.07V317.41H327.23ZM194.48 181.47V133.83H20.8999V307.41H71.74C71.84 307.41 71.93 307.42 72.03 307.42C72.07 307.42 72.1099 307.43 72.1599 307.43C72.9299 307.49 73.66 307.72 74.3 308.1L74.3201 308.11L74.3601 308.14L74.3899 308.15L74.4099 308.17L74.45 308.19L74.47 308.2V308.21C75.13 308.63 75.7001 309.21 76.1101 309.93C76.1601 310.01 76.21 310.1 76.25 310.19C81.12 319.8 81.41 330.78 81.76 343.2C81.76 343.25 81.76 343.3 81.76 343.35C81.76 357.66 93.3799 369.28 107.69 369.28C122 369.28 133.62 357.66 133.62 343.35C133.62 343.3 133.62 343.25 133.62 343.2C133.97 330.78 134.26 319.8 139.13 310.19C139.17 310.1 139.22 310.01 139.27 309.93C139.68 309.21 140.25 308.63 140.91 308.21V308.2L140.93 308.19L140.97 308.17L140.99 308.15L141.02 308.14L141.06 308.11L141.08 308.1C141.76 307.7 142.53 307.46 143.36 307.42C143.45 307.42 143.55 307.41 143.64 307.41H194.48V259.77C186.8 256.77 178.12 256.82 168.51 256.55C148.7 256.53 132.62 240.44 132.62 220.62C132.62 200.82 148.68 184.73 168.48 184.69C178.12 184.42 186.8 184.47 194.48 181.47ZM305.89 59.46C297.71 58.31 290.17 54.02 281.63 49.54C264.35 39.88 242.47 46.0501 232.78 63.3201C223.08 80.6001 229.22 102.5 246.49 112.22C254.74 117.16 262.33 121.36 267.56 127.74L241.79 173.64C240.44 176.05 241.3 179.1 243.71 180.45L292.4 207.78C292.49 207.83 292.57 207.88 292.65 207.92C293.39 208.29 294.19 208.45 294.97 208.44H294.98H294.99H295.04L295.07 208.43H295.1H295.15H295.16H295.17C295.95 208.39 296.73 208.16 297.44 207.73C297.53 207.68 297.61 207.63 297.7 207.57C306.64 201.57 312.27 192.14 318.66 181.48C318.68 181.44 318.7 181.4 318.73 181.36C325.73 168.88 341.55 164.43 354.03 171.44C366.51 178.44 370.95 194.26 363.95 206.74C363.93 206.78 363.9 206.82 363.88 206.86C358.1 217.87 352.99 227.59 352.53 238.35C352.52 238.45 352.52 238.55 352.52 238.65C352.53 239.48 352.74 240.26 353.11 240.95L353.12 240.97L353.14 241.01L353.16 241.04L353.17 241.06L353.19 241.11L353.2 241.12L353.21 241.13C353.6 241.8 354.16 242.39 354.86 242.83C354.93 242.88 355.02 242.93 355.1 242.98L403.8 270.31C406.2 271.66 409.25 270.8 410.6 268.4L500.46 108.31C501.82 105.9 500.96 102.85 498.55 101.5L338.46 11.6399C336.05 10.2899 333 11.1401 331.65 13.5501L305.89 59.46ZM313.04 67.1399C312.99 67.2299 312.94 67.3099 312.89 67.3899C312.45 68.0899 311.86 68.64 311.19 69.04H311.18L311.17 69.05L311.12 69.0801L311.1 69.0901L311.08 69.1001L311.03 69.1299H311.02L311.01 69.1399C310.32 69.5099 309.54 69.72 308.71 69.72C308.61 69.72 308.51 69.72 308.41 69.72C297.65 69.26 287.93 64.1401 276.93 58.3601C276.89 58.3401 276.84 58.32 276.8 58.29C264.32 51.29 248.5 55.74 241.5 68.21C234.49 80.69 238.94 96.51 251.42 103.52C251.46 103.54 251.5 103.56 251.54 103.59C262.21 109.98 271.64 115.6 277.63 124.55C277.69 124.63 277.74 124.72 277.8 124.8C278.22 125.51 278.45 126.29 278.49 127.07V127.08V127.1L278.5 127.15V127.17V127.2V127.25V127.27V127.28C278.52 128.06 278.35 128.85 277.98 129.59C277.94 129.68 277.89 129.76 277.85 129.84L252.96 174.18L294.5 197.5C300.88 192.26 305.09 184.67 310.03 176.43C319.74 159.16 341.64 153.02 358.92 162.72C376.2 172.41 382.36 194.29 372.71 211.57C368.22 220.11 363.93 227.65 362.79 235.82L404.33 259.14L489.3 107.77L337.93 22.8101L313.04 67.1399Z" fill="url(#paint0_linear_153_24)"/>
<circle cx="367" cy="111" r="50" fill="url(#paint1_linear_153_24)"/>
<circle cx="119" cy="429" r="50" fill="url(#paint2_linear_153_24)"/>
<defs>
<linearGradient id="paint0_linear_153_24" x1="256.003" y1="10.9988" x2="256.003" y2="501" gradientUnits="userSpaceOnUse">
<stop stop-color="#5373F0"/>
<stop offset="1" stop-color="#666666"/>
</linearGradient>
<linearGradient id="paint1_linear_153_24" x1="367" y1="61" x2="367" y2="161" gradientUnits="userSpaceOnUse">
<stop stop-color="#5375EF"/>
<stop offset="1" stop-color="#DAE4FC"/>
</linearGradient>
<linearGradient id="paint2_linear_153_24" x1="119" y1="379" x2="119" y2="479" gradientUnits="userSpaceOnUse">
<stop stop-color="#2E2D33"/>
<stop offset="1" stop-color="#DAE4FC"/>
</linearGradient>
</defs>
</svg>
