<svg width="17" height="17" viewBox="0 0 17 17" fill="none" xmlns="http://www.w3.org/2000/svg">
<path d="M12.125 5.74924C11.4536 5.74896 10.7925 5.91504 10.2009 6.23264C10.147 6.09046 10.051 5.96807 9.92579 5.88172C9.8006 5.79538 9.65209 5.74917 9.50001 5.74924H6.50001C6.4015 5.74919 6.30395 5.76855 6.21293 5.80622C6.12191 5.84389 6.03921 5.89913 5.96955 5.96879C5.8999 6.03844 5.84466 6.12114 5.80698 6.21216C5.76931 6.30318 5.74995 6.40074 5.75001 6.49924V15.4992C5.74995 15.5978 5.76931 15.6953 5.80698 15.7863C5.84465 15.8773 5.8999 15.96 5.96955 16.0297C6.03921 16.0994 6.12191 16.1546 6.21293 16.1923C6.30395 16.2299 6.4015 16.2493 6.50001 16.2492H9.50001C9.59852 16.2493 9.69607 16.2299 9.78709 16.1923C9.87811 16.1546 9.96081 16.0994 10.0305 16.0297C10.1001 15.96 10.1554 15.8773 10.193 15.7863C10.2307 15.6953 10.2501 15.5978 10.25 15.4992V11.3742C10.25 11.1753 10.329 10.9846 10.4697 10.8439C10.6103 10.7033 10.8011 10.6242 11 10.6242C11.1989 10.6242 11.3897 10.7033 11.5303 10.8439C11.671 10.9846 11.75 11.1753 11.75 11.3742V15.4992C11.75 15.5978 11.7693 15.6953 11.807 15.7863C11.8447 15.8773 11.8999 15.96 11.9696 16.0297C12.0392 16.0994 12.1219 16.1546 12.2129 16.1923C12.3039 16.2299 12.4015 16.2493 12.5 16.2492H15.5C15.5985 16.2493 15.6961 16.2299 15.7871 16.1923C15.8781 16.1546 15.9608 16.0994 16.0305 16.0297C16.1001 15.96 16.1554 15.8773 16.193 15.7863C16.2307 15.6953 16.2501 15.5978 16.25 15.4992V9.87424C16.2486 8.78064 15.8136 7.73222 15.0403 6.95893C14.267 6.18564 13.2186 5.7506 12.125 5.74924ZM14.75 14.7492H13.25V11.3742C13.25 10.7775 13.013 10.2052 12.591 9.78325C12.169 9.3613 11.5967 9.12424 11 9.12424C10.4033 9.12424 9.83097 9.3613 9.40902 9.78325C8.98706 10.2052 8.75001 10.7775 8.75001 11.3742V14.7492H7.25001V7.24924H8.75001V7.77659C8.7501 7.93199 8.79844 8.08353 8.88835 8.21028C8.97825 8.33703 9.1053 8.43274 9.25193 8.48419C9.39857 8.53564 9.55756 8.5403 9.70696 8.49751C9.85635 8.45473 9.98878 8.36661 10.0859 8.24534C10.4225 7.81787 10.8842 7.50617 11.4065 7.35377C11.9288 7.20137 12.4856 7.21588 12.9993 7.39527C13.513 7.57467 13.9578 7.90998 14.2716 8.35441C14.5855 8.79883 14.7527 9.33017 14.75 9.87424V14.7492ZM4.25001 5.74924H1.25001C1.1515 5.74919 1.05395 5.76855 0.96293 5.80622C0.87191 5.84389 0.789208 5.89913 0.719553 5.96879C0.649898 6.03844 0.594656 6.12114 0.556985 6.21216C0.519313 6.30318 0.499952 6.40074 0.500009 6.49924V15.4992C0.499951 15.5978 0.519312 15.6953 0.556983 15.7863C0.594653 15.8773 0.649896 15.96 0.719551 16.0297C0.789206 16.0994 0.871908 16.1546 0.962928 16.1923C1.05395 16.2299 1.1515 16.2493 1.25001 16.2492H4.25001C4.34852 16.2493 4.44607 16.2299 4.53709 16.1923C4.62811 16.1546 4.71081 16.0994 4.78047 16.0297C4.85012 15.96 4.90536 15.8773 4.94303 15.7863C4.98071 15.6953 5.00007 15.5978 5.00001 15.4992V6.49924C5.00006 6.40074 4.9807 6.30318 4.94303 6.21216C4.90536 6.12114 4.85012 6.03844 4.78046 5.96879C4.71081 5.89913 4.62811 5.84389 4.53709 5.80622C4.44607 5.76855 4.34852 5.74919 4.25001 5.74924ZM3.50001 14.7492H2.00001V7.24924H3.50001V14.7492ZM2.761 0.156493C2.43277 0.136846 2.10397 0.184166 1.7946 0.295576C1.48524 0.406987 1.20176 0.580159 0.961422 0.804562C0.721081 1.02897 0.528895 1.29991 0.396553 1.60092C0.26421 1.90193 0.194476 2.22671 0.191591 2.55551C0.188706 2.88432 0.252731 3.21027 0.379772 3.51356C0.506813 3.81684 0.694215 4.09111 0.930582 4.3197C1.16695 4.54828 1.44734 4.7264 1.75471 4.84323C2.06207 4.96005 2.38999 5.01313 2.71851 4.99924H2.73975C3.06885 5.01879 3.39847 4.97103 3.70849 4.85888C4.01851 4.74673 4.3024 4.57255 4.54282 4.34697C4.78325 4.1214 4.97515 3.84917 5.10681 3.54693C5.23847 3.24468 5.30713 2.91876 5.30857 2.58909C5.31002 2.25941 5.24423 1.93291 5.11522 1.62952C4.98622 1.32613 4.79671 1.05223 4.55827 0.824552C4.31984 0.596878 4.03748 0.420211 3.72846 0.305347C3.41944 0.190483 3.09025 0.139833 2.761 0.156493ZM2.73976 3.49924H2.71851C2.58881 3.51499 2.45724 3.50283 2.33263 3.46356C2.20801 3.4243 2.09324 3.35885 1.99599 3.27159C1.89875 3.18434 1.82128 3.0773 1.76879 2.95765C1.71631 2.838 1.69001 2.70852 1.69166 2.57788C1.69166 2.0183 2.11134 1.65649 2.761 1.65649C2.89202 1.63902 3.02527 1.64983 3.15176 1.6882C3.27825 1.72656 3.39505 1.79159 3.4943 1.8789C3.59354 1.96621 3.67293 2.07377 3.7271 2.19434C3.78127 2.31491 3.80898 2.44569 3.80836 2.57788C3.80836 3.13744 3.38868 3.49924 2.73976 3.49924Z" fill="#5372F0"/>
</svg>
