<svg width="351" height="252" viewBox="0 0 351 252" fill="none" xmlns="http://www.w3.org/2000/svg">
<g filter="url(#filter0_i_79_63)">
<path d="M35.6289 96.0447H54.9062V190.045C54.9062 194.818 56.5892 198.888 59.9551 202.254C63.321 205.62 67.36 207.303 72.0723 207.303H136.789V226.58H72.0723C65.4017 226.58 59.2819 224.958 53.7129 221.715C48.2051 218.41 43.7988 214.004 40.4941 208.496C37.2507 202.927 35.6289 196.776 35.6289 190.045V96.0447ZM150.559 165.627C150.559 159.323 152.089 153.601 155.148 148.461C158.27 143.32 162.431 139.22 167.633 136.16C172.835 133.039 178.587 131.478 184.891 131.478H237.949V226.58H218.58V150.847H184.891C180.79 150.847 177.271 152.316 174.334 155.254C171.396 158.13 169.928 161.649 169.928 165.81V192.064C169.928 196.226 171.396 199.806 174.334 202.804C177.271 205.742 180.79 207.211 184.891 207.211H207.564V226.58H184.891C178.587 226.58 172.835 225.05 167.633 221.99C162.431 218.869 158.27 214.707 155.148 209.506C152.089 204.304 150.559 198.551 150.559 192.248V165.627ZM259.219 122.429H274.673V226.58H259.219V122.429Z" fill="#518EE3"/>
</g>
<g filter="url(#filter1_f_79_63)">
<ellipse cx="268.5" cy="78.2017" rx="46.5" ry="42.2017" fill="#5551FF"/>
</g>
<g filter="url(#filter2_i_79_63)">
<ellipse cx="270" cy="78.6554" rx="31" ry="28.1345" fill="#3835A5"/>
</g>
<defs>
<filter id="filter0_i_79_63" x="35.6289" y="96.0447" width="243.044" height="134.535" filterUnits="userSpaceOnUse" color-interpolation-filters="sRGB">
<feFlood flood-opacity="0" result="BackgroundImageFix"/>
<feBlend mode="normal" in="SourceGraphic" in2="BackgroundImageFix" result="shape"/>
<feColorMatrix in="SourceAlpha" type="matrix" values="0 0 0 0 0 0 0 0 0 0 0 0 0 0 0 0 0 0 127 0" result="hardAlpha"/>
<feOffset dx="4" dy="4"/>
<feGaussianBlur stdDeviation="14.85"/>
<feComposite in2="hardAlpha" operator="arithmetic" k2="-1" k3="1"/>
<feColorMatrix type="matrix" values="0 0 0 0 0.337255 0 0 0 0 0.321569 0 0 0 0 1 0 0 0 1 0"/>
<feBlend mode="normal" in2="shape" result="effect1_innerShadow_79_63"/>
</filter>
<filter id="filter1_f_79_63" x="186.3" y="0.299999" width="164.4" height="155.803" filterUnits="userSpaceOnUse" color-interpolation-filters="sRGB">
<feFlood flood-opacity="0" result="BackgroundImageFix"/>
<feBlend mode="normal" in="SourceGraphic" in2="BackgroundImageFix" result="shape"/>
<feGaussianBlur stdDeviation="17.85" result="effect1_foregroundBlur_79_63"/>
</filter>
<filter id="filter2_i_79_63" x="239" y="50.521" width="62" height="60.2689" filterUnits="userSpaceOnUse" color-interpolation-filters="sRGB">
<feFlood flood-opacity="0" result="BackgroundImageFix"/>
<feBlend mode="normal" in="SourceGraphic" in2="BackgroundImageFix" result="shape"/>
<feColorMatrix in="SourceAlpha" type="matrix" values="0 0 0 0 0 0 0 0 0 0 0 0 0 0 0 0 0 0 127 0" result="hardAlpha"/>
<feMorphology radius="10" operator="erode" in="SourceAlpha" result="effect1_innerShadow_79_63"/>
<feOffset dy="4"/>
<feGaussianBlur stdDeviation="16.4"/>
<feComposite in2="hardAlpha" operator="arithmetic" k2="-1" k3="1"/>
<feColorMatrix type="matrix" values="0 0 0 0 0.337255 0 0 0 0 0.321569 0 0 0 0 1 0 0 0 1 0"/>
<feBlend mode="normal" in2="shape" result="effect1_innerShadow_79_63"/>
</filter>
</defs>
</svg>
