<svg width="1483" height="1729" viewBox="0 0 1483 1729" fill="none" xmlns="http://www.w3.org/2000/svg">
<rect width="1483" height="1729" fill="#262629"/>
<circle cx="766" cy="189" r="76" fill="#97B3F5"/>
<circle cx="946" cy="189" r="76" fill="#DAE4FC"/>
<circle cx="586" cy="189" r="76" fill="#8CACF5"/>
<circle cx="199" cy="189" r="76" fill="#1F316D"/>
<circle cx="405" cy="189" r="77" fill="#4572E3"/>
<circle cx="405" cy="189" r="77" fill="black" fill-opacity="0.2"/>
<g filter="url(#filter0_d_67_7)">
<ellipse cx="199.507" cy="395" rx="76.5067" ry="76" fill="#262629"/>
<path d="M275.513 395C275.513 436.694 241.487 470.5 199.507 470.5C157.526 470.5 123.5 436.694 123.5 395C123.5 353.306 157.526 319.5 199.507 319.5C241.487 319.5 275.513 353.306 275.513 395Z" stroke="#4572E3"/>
</g>
<ellipse cx="557.507" cy="395" rx="76.5067" ry="76" fill="#9B9FA4"/>
<ellipse cx="378.507" cy="395" rx="76.5067" ry="76" fill="#2E2E31"/>
<ellipse cx="746.507" cy="395" rx="76.5067" ry="76" fill="#FDFDFD"/>
<path d="M210.5 686.156V698.422H148.938V686.156H210.5ZM151.281 637.25V751H136.203V637.25H151.281ZM223.625 637.25V751H208.625V637.25H223.625ZM283.312 752.562C277.427 752.562 272.089 751.573 267.297 749.594C262.557 747.562 258.469 744.724 255.031 741.078C251.646 737.432 249.042 733.109 247.219 728.109C245.396 723.109 244.484 717.641 244.484 711.703V708.422C244.484 701.547 245.5 695.427 247.531 690.062C249.562 684.646 252.323 680.062 255.812 676.312C259.302 672.562 263.26 669.724 267.688 667.797C272.115 665.87 276.698 664.906 281.438 664.906C287.479 664.906 292.688 665.948 297.062 668.031C301.49 670.115 305.109 673.031 307.922 676.781C310.734 680.479 312.818 684.854 314.172 689.906C315.526 694.906 316.203 700.375 316.203 706.312V712.797H253.078V701H301.75V699.906C301.542 696.156 300.76 692.51 299.406 688.969C298.104 685.427 296.021 682.51 293.156 680.219C290.292 677.927 286.385 676.781 281.438 676.781C278.156 676.781 275.135 677.484 272.375 678.891C269.615 680.245 267.245 682.276 265.266 684.984C263.286 687.693 261.75 691 260.656 694.906C259.562 698.812 259.016 703.318 259.016 708.422V711.703C259.016 715.714 259.562 719.49 260.656 723.031C261.802 726.521 263.443 729.594 265.578 732.25C267.766 734.906 270.396 736.99 273.469 738.5C276.594 740.01 280.135 740.766 284.094 740.766C289.198 740.766 293.521 739.724 297.062 737.641C300.604 735.557 303.703 732.771 306.359 729.281L315.109 736.234C313.286 738.995 310.969 741.625 308.156 744.125C305.344 746.625 301.88 748.656 297.766 750.219C293.703 751.781 288.885 752.562 283.312 752.562ZM382.922 736.547V693.031C382.922 689.698 382.245 686.807 380.891 684.359C379.589 681.859 377.609 679.932 374.953 678.578C372.297 677.224 369.016 676.547 365.109 676.547C361.464 676.547 358.26 677.172 355.5 678.422C352.792 679.672 350.656 681.312 349.094 683.344C347.583 685.375 346.828 687.562 346.828 689.906H332.375C332.375 686.885 333.156 683.891 334.719 680.922C336.281 677.953 338.521 675.271 341.438 672.875C344.406 670.427 347.948 668.5 352.062 667.094C356.229 665.635 360.865 664.906 365.969 664.906C372.115 664.906 377.531 665.948 382.219 668.031C386.958 670.115 390.656 673.266 393.312 677.484C396.021 681.651 397.375 686.885 397.375 693.188V732.562C397.375 735.375 397.609 738.37 398.078 741.547C398.599 744.724 399.354 747.458 400.344 749.75V751H385.266C384.536 749.333 383.964 747.12 383.547 744.359C383.13 741.547 382.922 738.943 382.922 736.547ZM385.422 699.75L385.578 709.906H370.969C366.854 709.906 363.182 710.245 359.953 710.922C356.724 711.547 354.016 712.51 351.828 713.812C349.641 715.115 347.974 716.755 346.828 718.734C345.682 720.661 345.109 722.927 345.109 725.531C345.109 728.188 345.708 730.609 346.906 732.797C348.104 734.984 349.901 736.729 352.297 738.031C354.745 739.281 357.74 739.906 361.281 739.906C365.708 739.906 369.615 738.969 373 737.094C376.385 735.219 379.068 732.927 381.047 730.219C383.078 727.51 384.172 724.88 384.328 722.328L390.5 729.281C390.135 731.469 389.146 733.891 387.531 736.547C385.917 739.203 383.755 741.755 381.047 744.203C378.391 746.599 375.214 748.604 371.516 750.219C367.87 751.781 363.755 752.562 359.172 752.562C353.443 752.562 348.417 751.443 344.094 749.203C339.823 746.964 336.49 743.969 334.094 740.219C331.75 736.417 330.578 732.172 330.578 727.484C330.578 722.953 331.464 718.969 333.234 715.531C335.005 712.042 337.557 709.151 340.891 706.859C344.224 704.516 348.234 702.745 352.922 701.547C357.609 700.349 362.844 699.75 368.625 699.75H385.422ZM473.391 734.594V631H487.922V751H474.641L473.391 734.594ZM416.516 709.672V708.031C416.516 701.573 417.297 695.714 418.859 690.453C420.474 685.141 422.74 680.583 425.656 676.781C428.625 672.979 432.141 670.062 436.203 668.031C440.318 665.948 444.901 664.906 449.953 664.906C455.266 664.906 459.901 665.844 463.859 667.719C467.87 669.542 471.255 672.224 474.016 675.766C476.828 679.255 479.042 683.474 480.656 688.422C482.271 693.37 483.391 698.969 484.016 705.219V712.406C483.443 718.604 482.323 724.177 480.656 729.125C479.042 734.073 476.828 738.292 474.016 741.781C471.255 745.271 467.87 747.953 463.859 749.828C459.849 751.651 455.161 752.562 449.797 752.562C444.849 752.562 440.318 751.495 436.203 749.359C432.141 747.224 428.625 744.229 425.656 740.375C422.74 736.521 420.474 731.99 418.859 726.781C417.297 721.521 416.516 715.818 416.516 709.672ZM431.047 708.031V709.672C431.047 713.891 431.464 717.849 432.297 721.547C433.182 725.245 434.536 728.5 436.359 731.312C438.182 734.125 440.5 736.339 443.312 737.953C446.125 739.516 449.484 740.297 453.391 740.297C458.182 740.297 462.115 739.281 465.188 737.25C468.312 735.219 470.812 732.536 472.688 729.203C474.562 725.87 476.021 722.25 477.062 718.344V699.516C476.438 696.651 475.526 693.891 474.328 691.234C473.182 688.526 471.672 686.13 469.797 684.047C467.974 681.911 465.708 680.219 463 678.969C460.344 677.719 457.193 677.094 453.547 677.094C449.589 677.094 446.177 677.927 443.312 679.594C440.5 681.208 438.182 683.448 436.359 686.312C434.536 689.125 433.182 692.406 432.297 696.156C431.464 699.854 431.047 703.812 431.047 708.031ZM526.125 666.469V751H511.594V666.469H526.125ZM510.5 644.047C510.5 641.703 511.203 639.724 512.609 638.109C514.068 636.495 516.203 635.688 519.016 635.688C521.776 635.688 523.885 636.495 525.344 638.109C526.854 639.724 527.609 641.703 527.609 644.047C527.609 646.286 526.854 648.214 525.344 649.828C523.885 651.391 521.776 652.172 519.016 652.172C516.203 652.172 514.068 651.391 512.609 649.828C511.203 648.214 510.5 646.286 510.5 644.047ZM563.781 684.516V751H549.328V666.469H563L563.781 684.516ZM560.344 705.531L554.328 705.297C554.38 699.516 555.24 694.177 556.906 689.281C558.573 684.333 560.917 680.036 563.938 676.391C566.958 672.745 570.552 669.932 574.719 667.953C578.938 665.922 583.599 664.906 588.703 664.906C592.87 664.906 596.62 665.479 599.953 666.625C603.286 667.719 606.125 669.49 608.469 671.938C610.865 674.385 612.688 677.562 613.938 681.469C615.188 685.323 615.812 690.036 615.812 695.609V751H601.281V695.453C601.281 691.026 600.63 687.484 599.328 684.828C598.026 682.12 596.125 680.167 593.625 678.969C591.125 677.719 588.052 677.094 584.406 677.094C580.812 677.094 577.531 677.849 574.562 679.359C571.646 680.87 569.12 682.953 566.984 685.609C564.901 688.266 563.26 691.312 562.062 694.75C560.917 698.135 560.344 701.729 560.344 705.531ZM692.531 666.469H705.656V749.203C705.656 756.651 704.146 763.005 701.125 768.266C698.104 773.526 693.885 777.51 688.469 780.219C683.104 782.979 676.906 784.359 669.875 784.359C666.958 784.359 663.521 783.891 659.562 782.953C655.656 782.068 651.802 780.531 648 778.344C644.25 776.208 641.099 773.318 638.547 769.672L646.125 761.078C649.667 765.349 653.365 768.318 657.219 769.984C661.125 771.651 664.979 772.484 668.781 772.484C673.365 772.484 677.323 771.625 680.656 769.906C683.99 768.188 686.568 765.635 688.391 762.25C690.266 758.917 691.203 754.802 691.203 749.906V685.062L692.531 666.469ZM634.328 709.672V708.031C634.328 701.573 635.083 695.714 636.594 690.453C638.156 685.141 640.37 680.583 643.234 676.781C646.151 672.979 649.667 670.062 653.781 668.031C657.896 665.948 662.531 664.906 667.688 664.906C673 664.906 677.635 665.844 681.594 667.719C685.604 669.542 688.99 672.224 691.75 675.766C694.562 679.255 696.776 683.474 698.391 688.422C700.005 693.37 701.125 698.969 701.75 705.219V712.406C701.177 718.604 700.057 724.177 698.391 729.125C696.776 734.073 694.562 738.292 691.75 741.781C688.99 745.271 685.604 747.953 681.594 749.828C677.583 751.651 672.896 752.562 667.531 752.562C662.479 752.562 657.896 751.495 653.781 749.359C649.719 747.224 646.229 744.229 643.312 740.375C640.396 736.521 638.156 731.99 636.594 726.781C635.083 721.521 634.328 715.818 634.328 709.672ZM648.781 708.031V709.672C648.781 713.891 649.198 717.849 650.031 721.547C650.917 725.245 652.245 728.5 654.016 731.312C655.839 734.125 658.156 736.339 660.969 737.953C663.781 739.516 667.141 740.297 671.047 740.297C675.839 740.297 679.797 739.281 682.922 737.25C686.047 735.219 688.521 732.536 690.344 729.203C692.219 725.87 693.677 722.25 694.719 718.344V699.516C694.146 696.651 693.26 693.891 692.062 691.234C690.917 688.526 689.406 686.13 687.531 684.047C685.708 681.911 683.443 680.219 680.734 678.969C678.026 677.719 674.849 677.094 671.203 677.094C667.245 677.094 663.833 677.927 660.969 679.594C658.156 681.208 655.839 683.448 654.016 686.312C652.245 689.125 650.917 692.406 650.031 696.156C649.198 699.854 648.781 703.812 648.781 708.031ZM813.234 636.625V751H798.781V654.672L769.641 665.297V652.25L810.969 636.625H813.234Z" fill="white"/>
<path d="M139.406 1208.84V1211.14H127.863V1208.84H139.406ZM128.303 1199.67V1221H125.476V1199.67H128.303ZM141.867 1199.67V1221H139.055V1199.67H141.867ZM153.059 1221.29C151.955 1221.29 150.954 1221.11 150.056 1220.74C149.167 1220.36 148.4 1219.82 147.756 1219.14C147.121 1218.46 146.633 1217.65 146.291 1216.71C145.949 1215.77 145.778 1214.75 145.778 1213.63V1213.02C145.778 1211.73 145.969 1210.58 146.35 1209.57C146.73 1208.56 147.248 1207.7 147.902 1207C148.557 1206.29 149.299 1205.76 150.129 1205.4C150.959 1205.04 151.818 1204.86 152.707 1204.86C153.84 1204.86 154.816 1205.05 155.637 1205.44C156.467 1205.83 157.146 1206.38 157.673 1207.08C158.2 1207.78 158.591 1208.6 158.845 1209.54C159.099 1210.48 159.226 1211.51 159.226 1212.62V1213.84H147.39V1211.62H156.516V1211.42C156.477 1210.72 156.33 1210.03 156.076 1209.37C155.832 1208.71 155.441 1208.16 154.904 1207.73C154.367 1207.3 153.635 1207.08 152.707 1207.08C152.092 1207.08 151.525 1207.22 151.008 1207.48C150.49 1207.73 150.046 1208.11 149.675 1208.62C149.304 1209.13 149.016 1209.75 148.811 1210.48C148.605 1211.21 148.503 1212.06 148.503 1213.02V1213.63C148.503 1214.38 148.605 1215.09 148.811 1215.76C149.025 1216.41 149.333 1216.99 149.733 1217.48C150.144 1217.98 150.637 1218.37 151.213 1218.66C151.799 1218.94 152.463 1219.08 153.205 1219.08C154.162 1219.08 154.973 1218.89 155.637 1218.5C156.301 1218.1 156.882 1217.58 157.38 1216.93L159.021 1218.23C158.679 1218.75 158.244 1219.24 157.717 1219.71C157.189 1220.18 156.54 1220.56 155.769 1220.85C155.007 1221.15 154.104 1221.29 153.059 1221.29ZM171.735 1218.29V1210.13C171.735 1209.51 171.608 1208.96 171.354 1208.5C171.11 1208.04 170.739 1207.67 170.241 1207.42C169.743 1207.17 169.128 1207.04 168.396 1207.04C167.712 1207.04 167.111 1207.16 166.594 1207.39C166.086 1207.63 165.686 1207.93 165.393 1208.31C165.109 1208.7 164.968 1209.11 164.968 1209.54H162.258C162.258 1208.98 162.404 1208.42 162.697 1207.86C162.99 1207.3 163.41 1206.8 163.957 1206.35C164.514 1205.89 165.178 1205.53 165.949 1205.27C166.73 1204.99 167.6 1204.86 168.557 1204.86C169.709 1204.86 170.725 1205.05 171.604 1205.44C172.492 1205.83 173.186 1206.42 173.684 1207.22C174.191 1208 174.445 1208.98 174.445 1210.16V1217.54C174.445 1218.07 174.489 1218.63 174.577 1219.23C174.675 1219.82 174.816 1220.34 175.002 1220.77V1221H172.175C172.038 1220.69 171.931 1220.27 171.853 1219.75C171.774 1219.23 171.735 1218.74 171.735 1218.29ZM172.204 1211.39L172.233 1213.29H169.494C168.723 1213.29 168.034 1213.36 167.429 1213.49C166.823 1213.6 166.315 1213.78 165.905 1214.03C165.495 1214.27 165.183 1214.58 164.968 1214.95C164.753 1215.31 164.646 1215.74 164.646 1216.22C164.646 1216.72 164.758 1217.18 164.982 1217.59C165.207 1218 165.544 1218.32 165.993 1218.57C166.452 1218.8 167.014 1218.92 167.678 1218.92C168.508 1218.92 169.24 1218.74 169.875 1218.39C170.51 1218.04 171.013 1217.61 171.384 1217.1C171.765 1216.6 171.97 1216.1 171.999 1215.62L173.156 1216.93C173.088 1217.34 172.902 1217.79 172.6 1218.29C172.297 1218.79 171.892 1219.27 171.384 1219.73C170.886 1220.17 170.29 1220.55 169.597 1220.85C168.913 1221.15 168.142 1221.29 167.282 1221.29C166.208 1221.29 165.266 1221.08 164.455 1220.66C163.654 1220.24 163.029 1219.68 162.58 1218.98C162.141 1218.27 161.921 1217.47 161.921 1216.59C161.921 1215.74 162.087 1214.99 162.419 1214.35C162.751 1213.7 163.229 1213.15 163.854 1212.72C164.479 1212.28 165.231 1211.95 166.11 1211.73C166.989 1211.5 167.971 1211.39 169.055 1211.39H172.204ZM188.698 1217.92V1198.5H191.423V1221H188.933L188.698 1217.92ZM178.034 1213.25V1212.94C178.034 1211.73 178.181 1210.63 178.474 1209.65C178.776 1208.65 179.201 1207.8 179.748 1207.08C180.305 1206.37 180.964 1205.82 181.726 1205.44C182.497 1205.05 183.356 1204.86 184.304 1204.86C185.3 1204.86 186.169 1205.03 186.911 1205.38C187.663 1205.73 188.298 1206.23 188.815 1206.89C189.343 1207.55 189.758 1208.34 190.061 1209.27C190.363 1210.19 190.573 1211.24 190.69 1212.42V1213.76C190.583 1214.93 190.373 1215.97 190.061 1216.9C189.758 1217.83 189.343 1218.62 188.815 1219.27C188.298 1219.93 187.663 1220.43 186.911 1220.78C186.159 1221.12 185.28 1221.29 184.274 1221.29C183.347 1221.29 182.497 1221.09 181.726 1220.69C180.964 1220.29 180.305 1219.73 179.748 1219.01C179.201 1218.29 178.776 1217.44 178.474 1216.46C178.181 1215.47 178.034 1214.4 178.034 1213.25ZM180.759 1212.94V1213.25C180.759 1214.04 180.837 1214.78 180.993 1215.48C181.159 1216.17 181.413 1216.78 181.755 1217.31C182.097 1217.84 182.531 1218.25 183.059 1218.55C183.586 1218.85 184.216 1218.99 184.948 1218.99C185.847 1218.99 186.584 1218.8 187.16 1218.42C187.746 1218.04 188.215 1217.54 188.566 1216.91C188.918 1216.29 189.191 1215.61 189.387 1214.88V1211.35C189.27 1210.81 189.099 1210.29 188.874 1209.79C188.659 1209.29 188.376 1208.84 188.024 1208.45C187.683 1208.05 187.258 1207.73 186.75 1207.49C186.252 1207.26 185.661 1207.14 184.978 1207.14C184.235 1207.14 183.596 1207.3 183.059 1207.61C182.531 1207.91 182.097 1208.33 181.755 1208.87C181.413 1209.4 181.159 1210.01 180.993 1210.72C180.837 1211.41 180.759 1212.15 180.759 1212.94ZM198.586 1205.15V1221H195.861V1205.15H198.586ZM195.656 1200.95C195.656 1200.51 195.788 1200.14 196.052 1199.83C196.325 1199.53 196.726 1199.38 197.253 1199.38C197.771 1199.38 198.166 1199.53 198.439 1199.83C198.723 1200.14 198.864 1200.51 198.864 1200.95C198.864 1201.37 198.723 1201.73 198.439 1202.03C198.166 1202.32 197.771 1202.47 197.253 1202.47C196.726 1202.47 196.325 1202.32 196.052 1202.03C195.788 1201.73 195.656 1201.37 195.656 1200.95ZM205.646 1208.53V1221H202.937V1205.15H205.5L205.646 1208.53ZM205.002 1212.47L203.874 1212.43C203.884 1211.35 204.045 1210.35 204.357 1209.43C204.67 1208.5 205.109 1207.69 205.676 1207.01C206.242 1206.33 206.916 1205.8 207.697 1205.43C208.488 1205.05 209.362 1204.86 210.319 1204.86C211.101 1204.86 211.804 1204.96 212.429 1205.18C213.054 1205.38 213.586 1205.72 214.025 1206.18C214.475 1206.63 214.816 1207.23 215.051 1207.96C215.285 1208.69 215.402 1209.57 215.402 1210.61V1221H212.678V1210.58C212.678 1209.75 212.556 1209.09 212.312 1208.59C212.067 1208.08 211.711 1207.72 211.242 1207.49C210.773 1207.26 210.197 1207.14 209.514 1207.14C208.84 1207.14 208.225 1207.28 207.668 1207.57C207.121 1207.85 206.647 1208.24 206.247 1208.74C205.856 1209.24 205.549 1209.81 205.324 1210.45C205.109 1211.09 205.002 1211.76 205.002 1212.47ZM229.787 1205.15H232.248V1220.66C232.248 1222.06 231.965 1223.25 231.398 1224.24C230.832 1225.22 230.041 1225.97 229.025 1226.48C228.02 1227 226.857 1227.25 225.539 1227.25C224.992 1227.25 224.348 1227.17 223.605 1226.99C222.873 1226.83 222.15 1226.54 221.438 1226.13C220.734 1225.73 220.144 1225.18 219.665 1224.5L221.086 1222.89C221.75 1223.69 222.443 1224.25 223.166 1224.56C223.898 1224.87 224.621 1225.03 225.334 1225.03C226.193 1225.03 226.936 1224.87 227.561 1224.54C228.186 1224.22 228.669 1223.74 229.011 1223.11C229.362 1222.48 229.538 1221.71 229.538 1220.79V1208.64L229.787 1205.15ZM218.874 1213.25V1212.94C218.874 1211.73 219.016 1210.63 219.299 1209.65C219.592 1208.65 220.007 1207.8 220.544 1207.08C221.091 1206.37 221.75 1205.82 222.521 1205.44C223.293 1205.05 224.162 1204.86 225.129 1204.86C226.125 1204.86 226.994 1205.03 227.736 1205.38C228.488 1205.73 229.123 1206.23 229.641 1206.89C230.168 1207.55 230.583 1208.34 230.886 1209.27C231.188 1210.19 231.398 1211.24 231.516 1212.42V1213.76C231.408 1214.93 231.198 1215.97 230.886 1216.9C230.583 1217.83 230.168 1218.62 229.641 1219.27C229.123 1219.93 228.488 1220.43 227.736 1220.78C226.984 1221.12 226.105 1221.29 225.1 1221.29C224.152 1221.29 223.293 1221.09 222.521 1220.69C221.76 1220.29 221.105 1219.73 220.559 1219.01C220.012 1218.29 219.592 1217.44 219.299 1216.46C219.016 1215.47 218.874 1214.4 218.874 1213.25ZM221.584 1212.94V1213.25C221.584 1214.04 221.662 1214.78 221.818 1215.48C221.984 1216.17 222.233 1216.78 222.565 1217.31C222.907 1217.84 223.342 1218.25 223.869 1218.55C224.396 1218.85 225.026 1218.99 225.759 1218.99C226.657 1218.99 227.399 1218.8 227.985 1218.42C228.571 1218.04 229.035 1217.54 229.377 1216.91C229.729 1216.29 230.002 1215.61 230.197 1214.88V1211.35C230.09 1210.81 229.924 1210.29 229.699 1209.79C229.484 1209.29 229.201 1208.84 228.85 1208.45C228.508 1208.05 228.083 1207.73 227.575 1207.49C227.067 1207.26 226.472 1207.14 225.788 1207.14C225.046 1207.14 224.406 1207.3 223.869 1207.61C223.342 1207.91 222.907 1208.33 222.565 1208.87C222.233 1209.4 221.984 1210.01 221.818 1210.72C221.662 1211.41 221.584 1212.15 221.584 1212.94ZM253.913 1199.64H254.147V1201.94H253.913C252.478 1201.94 251.276 1202.18 250.31 1202.65C249.343 1203.1 248.576 1203.72 248.01 1204.51C247.443 1205.28 247.033 1206.15 246.779 1207.11C246.535 1208.08 246.413 1209.06 246.413 1210.06V1213.19C246.413 1214.14 246.525 1214.98 246.75 1215.71C246.975 1216.43 247.282 1217.04 247.673 1217.54C248.063 1218.04 248.503 1218.42 248.991 1218.67C249.489 1218.92 250.007 1219.05 250.544 1219.05C251.169 1219.05 251.726 1218.93 252.214 1218.7C252.702 1218.46 253.112 1218.12 253.444 1217.69C253.786 1217.25 254.045 1216.73 254.221 1216.14C254.396 1215.54 254.484 1214.89 254.484 1214.17C254.484 1213.54 254.406 1212.93 254.25 1212.34C254.094 1211.75 253.854 1211.22 253.532 1210.76C253.21 1210.29 252.805 1209.93 252.316 1209.66C251.838 1209.39 251.267 1209.25 250.603 1209.25C249.851 1209.25 249.147 1209.44 248.493 1209.81C247.849 1210.17 247.316 1210.65 246.896 1211.24C246.486 1211.83 246.252 1212.47 246.193 1213.16L244.758 1213.15C244.895 1212.05 245.148 1211.12 245.52 1210.35C245.9 1209.57 246.369 1208.93 246.926 1208.45C247.492 1207.95 248.122 1207.59 248.815 1207.36C249.519 1207.13 250.261 1207.01 251.042 1207.01C252.106 1207.01 253.024 1207.21 253.796 1207.61C254.567 1208.01 255.202 1208.55 255.7 1209.22C256.198 1209.89 256.564 1210.64 256.799 1211.48C257.043 1212.31 257.165 1213.16 257.165 1214.04C257.165 1215.05 257.023 1215.99 256.74 1216.87C256.457 1217.75 256.032 1218.52 255.466 1219.18C254.909 1219.85 254.221 1220.37 253.4 1220.74C252.58 1221.11 251.628 1221.29 250.544 1221.29C249.392 1221.29 248.386 1221.06 247.526 1220.59C246.667 1220.11 245.954 1219.48 245.388 1218.69C244.821 1217.89 244.396 1217.02 244.113 1216.05C243.83 1215.08 243.688 1214.1 243.688 1213.1V1211.83C243.688 1210.33 243.84 1208.85 244.143 1207.41C244.445 1205.96 244.968 1204.65 245.71 1203.48C246.462 1202.31 247.502 1201.38 248.83 1200.68C250.158 1199.99 251.853 1199.64 253.913 1199.64Z" fill="white"/>
<path d="M144.875 1137.79V1140.86H129.484V1137.79H144.875ZM130.07 1125.56V1154H126.301V1125.56H130.07ZM148.156 1125.56V1154H144.406V1125.56H148.156ZM163.078 1154.39C161.607 1154.39 160.272 1154.14 159.074 1153.65C157.889 1153.14 156.867 1152.43 156.008 1151.52C155.161 1150.61 154.51 1149.53 154.055 1148.28C153.599 1147.03 153.371 1145.66 153.371 1144.18V1143.36C153.371 1141.64 153.625 1140.11 154.133 1138.77C154.641 1137.41 155.331 1136.27 156.203 1135.33C157.076 1134.39 158.065 1133.68 159.172 1133.2C160.279 1132.72 161.424 1132.48 162.609 1132.48C164.12 1132.48 165.422 1132.74 166.516 1133.26C167.622 1133.78 168.527 1134.51 169.23 1135.45C169.934 1136.37 170.454 1137.46 170.793 1138.73C171.132 1139.98 171.301 1141.34 171.301 1142.83V1144.45H155.52V1141.5H167.688V1141.23C167.635 1140.29 167.44 1139.38 167.102 1138.49C166.776 1137.61 166.255 1136.88 165.539 1136.3C164.823 1135.73 163.846 1135.45 162.609 1135.45C161.789 1135.45 161.034 1135.62 160.344 1135.97C159.654 1136.31 159.061 1136.82 158.566 1137.5C158.072 1138.17 157.688 1139 157.414 1139.98C157.141 1140.95 157.004 1142.08 157.004 1143.36V1144.18C157.004 1145.18 157.141 1146.12 157.414 1147.01C157.701 1147.88 158.111 1148.65 158.645 1149.31C159.191 1149.98 159.849 1150.5 160.617 1150.88C161.398 1151.25 162.284 1151.44 163.273 1151.44C164.549 1151.44 165.63 1151.18 166.516 1150.66C167.401 1150.14 168.176 1149.44 168.84 1148.57L171.027 1150.31C170.572 1151 169.992 1151.66 169.289 1152.28C168.586 1152.91 167.72 1153.41 166.691 1153.8C165.676 1154.2 164.471 1154.39 163.078 1154.39ZM187.98 1150.39V1139.51C187.98 1138.67 187.811 1137.95 187.473 1137.34C187.147 1136.71 186.652 1136.23 185.988 1135.89C185.324 1135.56 184.504 1135.39 183.527 1135.39C182.616 1135.39 181.815 1135.54 181.125 1135.86C180.448 1136.17 179.914 1136.58 179.523 1137.09C179.146 1137.59 178.957 1138.14 178.957 1138.73H175.344C175.344 1137.97 175.539 1137.22 175.93 1136.48C176.32 1135.74 176.88 1135.07 177.609 1134.47C178.352 1133.86 179.237 1133.38 180.266 1133.02C181.307 1132.66 182.466 1132.48 183.742 1132.48C185.279 1132.48 186.633 1132.74 187.805 1133.26C188.99 1133.78 189.914 1134.57 190.578 1135.62C191.255 1136.66 191.594 1137.97 191.594 1139.55V1149.39C191.594 1150.09 191.652 1150.84 191.77 1151.64C191.9 1152.43 192.089 1153.11 192.336 1153.69V1154H188.566C188.384 1153.58 188.241 1153.03 188.137 1152.34C188.033 1151.64 187.98 1150.99 187.98 1150.39ZM188.605 1141.19L188.645 1143.73H184.992C183.964 1143.73 183.046 1143.81 182.238 1143.98C181.431 1144.14 180.754 1144.38 180.207 1144.7C179.66 1145.03 179.243 1145.44 178.957 1145.93C178.671 1146.42 178.527 1146.98 178.527 1147.63C178.527 1148.3 178.677 1148.9 178.977 1149.45C179.276 1150 179.725 1150.43 180.324 1150.76C180.936 1151.07 181.685 1151.23 182.57 1151.23C183.677 1151.23 184.654 1150.99 185.5 1150.52C186.346 1150.05 187.017 1149.48 187.512 1148.8C188.02 1148.13 188.293 1147.47 188.332 1146.83L189.875 1148.57C189.784 1149.12 189.536 1149.72 189.133 1150.39C188.729 1151.05 188.189 1151.69 187.512 1152.3C186.848 1152.9 186.053 1153.4 185.129 1153.8C184.217 1154.2 183.189 1154.39 182.043 1154.39C180.611 1154.39 179.354 1154.11 178.273 1153.55C177.206 1152.99 176.372 1152.24 175.773 1151.3C175.188 1150.35 174.895 1149.29 174.895 1148.12C174.895 1146.99 175.116 1145.99 175.559 1145.13C176.001 1144.26 176.639 1143.54 177.473 1142.96C178.306 1142.38 179.309 1141.94 180.48 1141.64C181.652 1141.34 182.961 1141.19 184.406 1141.19H188.605ZM210.598 1149.9V1124H214.23V1154H210.91L210.598 1149.9ZM196.379 1143.67V1143.26C196.379 1141.64 196.574 1140.18 196.965 1138.86C197.368 1137.54 197.935 1136.4 198.664 1135.45C199.406 1134.49 200.285 1133.77 201.301 1133.26C202.329 1132.74 203.475 1132.48 204.738 1132.48C206.066 1132.48 207.225 1132.71 208.215 1133.18C209.217 1133.64 210.064 1134.31 210.754 1135.19C211.457 1136.06 212.01 1137.12 212.414 1138.36C212.818 1139.59 213.098 1140.99 213.254 1142.55V1144.35C213.111 1145.9 212.831 1147.29 212.414 1148.53C212.01 1149.77 211.457 1150.82 210.754 1151.7C210.064 1152.57 209.217 1153.24 208.215 1153.71C207.212 1154.16 206.04 1154.39 204.699 1154.39C203.462 1154.39 202.329 1154.12 201.301 1153.59C200.285 1153.06 199.406 1152.31 198.664 1151.34C197.935 1150.38 197.368 1149.25 196.965 1147.95C196.574 1146.63 196.379 1145.2 196.379 1143.67ZM200.012 1143.26V1143.67C200.012 1144.72 200.116 1145.71 200.324 1146.64C200.546 1147.56 200.884 1148.38 201.34 1149.08C201.796 1149.78 202.375 1150.33 203.078 1150.74C203.781 1151.13 204.621 1151.32 205.598 1151.32C206.796 1151.32 207.779 1151.07 208.547 1150.56C209.328 1150.05 209.953 1149.38 210.422 1148.55C210.891 1147.72 211.255 1146.81 211.516 1145.84V1141.13C211.359 1140.41 211.132 1139.72 210.832 1139.06C210.546 1138.38 210.168 1137.78 209.699 1137.26C209.243 1136.73 208.677 1136.3 208 1135.99C207.336 1135.68 206.548 1135.52 205.637 1135.52C204.647 1135.52 203.794 1135.73 203.078 1136.15C202.375 1136.55 201.796 1137.11 201.34 1137.83C200.884 1138.53 200.546 1139.35 200.324 1140.29C200.116 1141.21 200.012 1142.2 200.012 1143.26ZM223.781 1132.87V1154H220.148V1132.87H223.781ZM219.875 1127.26C219.875 1126.68 220.051 1126.18 220.402 1125.78C220.767 1125.37 221.301 1125.17 222.004 1125.17C222.694 1125.17 223.221 1125.37 223.586 1125.78C223.964 1126.18 224.152 1126.68 224.152 1127.26C224.152 1127.82 223.964 1128.3 223.586 1128.71C223.221 1129.1 222.694 1129.29 222.004 1129.29C221.301 1129.29 220.767 1129.1 220.402 1128.71C220.051 1128.3 219.875 1127.82 219.875 1127.26ZM233.195 1137.38V1154H229.582V1132.87H233L233.195 1137.38ZM232.336 1142.63L230.832 1142.57C230.845 1141.13 231.06 1139.79 231.477 1138.57C231.893 1137.33 232.479 1136.26 233.234 1135.35C233.99 1134.44 234.888 1133.73 235.93 1133.24C236.984 1132.73 238.15 1132.48 239.426 1132.48C240.467 1132.48 241.405 1132.62 242.238 1132.91C243.072 1133.18 243.781 1133.62 244.367 1134.23C244.966 1134.85 245.422 1135.64 245.734 1136.62C246.047 1137.58 246.203 1138.76 246.203 1140.15V1154H242.57V1140.11C242.57 1139.01 242.408 1138.12 242.082 1137.46C241.757 1136.78 241.281 1136.29 240.656 1135.99C240.031 1135.68 239.263 1135.52 238.352 1135.52C237.453 1135.52 236.633 1135.71 235.891 1136.09C235.161 1136.47 234.53 1136.99 233.996 1137.65C233.475 1138.32 233.065 1139.08 232.766 1139.94C232.479 1140.78 232.336 1141.68 232.336 1142.63ZM265.383 1132.87H268.664V1153.55C268.664 1155.41 268.286 1157 267.531 1158.32C266.776 1159.63 265.721 1160.63 264.367 1161.3C263.026 1161.99 261.477 1162.34 259.719 1162.34C258.99 1162.34 258.13 1162.22 257.141 1161.99C256.164 1161.77 255.201 1161.38 254.25 1160.84C253.312 1160.3 252.525 1159.58 251.887 1158.67L253.781 1156.52C254.667 1157.59 255.591 1158.33 256.555 1158.75C257.531 1159.16 258.495 1159.37 259.445 1159.37C260.591 1159.37 261.581 1159.16 262.414 1158.73C263.247 1158.3 263.892 1157.66 264.348 1156.81C264.816 1155.98 265.051 1154.95 265.051 1153.73V1137.52L265.383 1132.87ZM250.832 1143.67V1143.26C250.832 1141.64 251.021 1140.18 251.398 1138.86C251.789 1137.54 252.342 1136.4 253.059 1135.45C253.788 1134.49 254.667 1133.77 255.695 1133.26C256.724 1132.74 257.883 1132.48 259.172 1132.48C260.5 1132.48 261.659 1132.71 262.648 1133.18C263.651 1133.64 264.497 1134.31 265.188 1135.19C265.891 1136.06 266.444 1137.12 266.848 1138.36C267.251 1139.59 267.531 1140.99 267.688 1142.55V1144.35C267.544 1145.9 267.264 1147.29 266.848 1148.53C266.444 1149.77 265.891 1150.82 265.188 1151.7C264.497 1152.57 263.651 1153.24 262.648 1153.71C261.646 1154.16 260.474 1154.39 259.133 1154.39C257.87 1154.39 256.724 1154.12 255.695 1153.59C254.68 1153.06 253.807 1152.31 253.078 1151.34C252.349 1150.38 251.789 1149.25 251.398 1147.95C251.021 1146.63 250.832 1145.2 250.832 1143.67ZM254.445 1143.26V1143.67C254.445 1144.72 254.549 1145.71 254.758 1146.64C254.979 1147.56 255.311 1148.38 255.754 1149.08C256.21 1149.78 256.789 1150.33 257.492 1150.74C258.195 1151.13 259.035 1151.32 260.012 1151.32C261.21 1151.32 262.199 1151.07 262.98 1150.56C263.762 1150.05 264.38 1149.38 264.836 1148.55C265.305 1147.72 265.669 1146.81 265.93 1145.84V1141.13C265.786 1140.41 265.565 1139.72 265.266 1139.06C264.979 1138.38 264.602 1137.78 264.133 1137.26C263.677 1136.73 263.111 1136.3 262.434 1135.99C261.757 1135.68 260.962 1135.52 260.051 1135.52C259.061 1135.52 258.208 1135.73 257.492 1136.15C256.789 1136.55 256.21 1137.11 255.754 1137.83C255.311 1138.53 254.979 1139.35 254.758 1140.29C254.549 1141.21 254.445 1142.2 254.445 1143.26ZM288.254 1140.46L285.363 1139.72L286.789 1125.56H301.379V1128.9H289.855L288.996 1136.64C289.517 1136.34 290.174 1136.06 290.969 1135.8C291.776 1135.54 292.701 1135.41 293.742 1135.41C295.057 1135.41 296.236 1135.63 297.277 1136.09C298.319 1136.53 299.204 1137.17 299.934 1138C300.676 1138.84 301.242 1139.84 301.633 1141.01C302.023 1142.18 302.219 1143.49 302.219 1144.94C302.219 1146.3 302.03 1147.56 301.652 1148.71C301.288 1149.85 300.734 1150.86 299.992 1151.71C299.25 1152.56 298.312 1153.22 297.18 1153.69C296.06 1154.16 294.738 1154.39 293.215 1154.39C292.069 1154.39 290.982 1154.23 289.953 1153.92C288.938 1153.6 288.026 1153.11 287.219 1152.46C286.424 1151.79 285.773 1150.97 285.266 1150C284.771 1149.01 284.458 1147.85 284.328 1146.52H287.766C287.922 1147.59 288.234 1148.49 288.703 1149.21C289.172 1149.94 289.784 1150.5 290.539 1150.88C291.307 1151.24 292.199 1151.42 293.215 1151.42C294.074 1151.42 294.836 1151.27 295.5 1150.97C296.164 1150.67 296.724 1150.24 297.18 1149.68C297.635 1149.12 297.98 1148.45 298.215 1147.65C298.462 1146.86 298.586 1145.97 298.586 1144.98C298.586 1144.08 298.462 1143.24 298.215 1142.48C297.967 1141.71 297.596 1141.04 297.102 1140.46C296.62 1139.89 296.027 1139.45 295.324 1139.14C294.621 1138.81 293.814 1138.65 292.902 1138.65C291.691 1138.65 290.773 1138.81 290.148 1139.14C289.536 1139.46 288.905 1139.9 288.254 1140.46Z" fill="white"/>
<path d="M154.719 1057.49V1061.94H132.402V1057.49H154.719ZM133.252 1039.77V1081H127.786V1039.77H133.252ZM159.477 1039.77V1081H154.039V1039.77H159.477ZM181.113 1081.57C178.98 1081.57 177.045 1081.21 175.308 1080.49C173.59 1079.75 172.107 1078.72 170.861 1077.4C169.634 1076.08 168.69 1074.51 168.029 1072.7C167.368 1070.89 167.038 1068.91 167.038 1066.75V1065.57C167.038 1063.07 167.406 1060.85 168.143 1058.91C168.879 1056.95 169.88 1055.29 171.145 1053.93C172.41 1052.57 173.844 1051.54 175.449 1050.84C177.054 1050.14 178.715 1049.79 180.434 1049.79C182.624 1049.79 184.512 1050.17 186.098 1050.92C187.702 1051.68 189.015 1052.74 190.034 1054.1C191.054 1055.44 191.809 1057.02 192.3 1058.85C192.791 1060.67 193.036 1062.65 193.036 1064.8V1067.15H170.153V1062.88H187.797V1062.48C187.721 1061.12 187.438 1059.8 186.947 1058.51C186.475 1057.23 185.72 1056.17 184.682 1055.34C183.643 1054.51 182.227 1054.1 180.434 1054.1C179.244 1054.1 178.149 1054.35 177.148 1054.86C176.148 1055.35 175.289 1056.09 174.571 1057.07C173.854 1058.05 173.297 1059.25 172.9 1060.67C172.504 1062.08 172.306 1063.72 172.306 1065.57V1066.75C172.306 1068.21 172.504 1069.58 172.9 1070.86C173.316 1072.13 173.91 1073.24 174.685 1074.2C175.478 1075.17 176.431 1075.92 177.545 1076.47C178.678 1077.02 179.962 1077.29 181.396 1077.29C183.247 1077.29 184.814 1076.91 186.098 1076.16C187.382 1075.4 188.505 1074.39 189.468 1073.13L192.64 1075.65C191.979 1076.65 191.139 1077.6 190.119 1078.51C189.1 1079.41 187.844 1080.15 186.353 1080.72C184.88 1081.28 183.133 1081.57 181.113 1081.57ZM217.222 1075.76V1059.99C217.222 1058.78 216.976 1057.73 216.485 1056.84C216.013 1055.94 215.296 1055.24 214.333 1054.75C213.37 1054.26 212.181 1054.01 210.765 1054.01C209.443 1054.01 208.282 1054.24 207.281 1054.69C206.299 1055.14 205.525 1055.74 204.959 1056.47C204.411 1057.21 204.138 1058 204.138 1058.85H198.898C198.898 1057.76 199.182 1056.67 199.748 1055.6C200.314 1054.52 201.126 1053.55 202.184 1052.68C203.26 1051.79 204.544 1051.09 206.035 1050.58C207.546 1050.06 209.226 1049.79 211.076 1049.79C213.304 1049.79 215.268 1050.17 216.967 1050.92C218.685 1051.68 220.025 1052.82 220.988 1054.35C221.97 1055.86 222.461 1057.76 222.461 1060.04V1074.32C222.461 1075.34 222.546 1076.42 222.716 1077.57C222.905 1078.72 223.178 1079.72 223.537 1080.55V1081H218.071C217.807 1080.4 217.599 1079.59 217.448 1078.59C217.297 1077.57 217.222 1076.63 217.222 1075.76ZM218.128 1062.42L218.185 1066.1H212.889C211.397 1066.1 210.066 1066.23 208.896 1066.47C207.725 1066.7 206.743 1067.05 205.95 1067.52C205.157 1067.99 204.553 1068.59 204.138 1069.3C203.722 1070 203.515 1070.82 203.515 1071.77C203.515 1072.73 203.732 1073.61 204.166 1074.4C204.6 1075.19 205.252 1075.83 206.12 1076.3C207.007 1076.75 208.093 1076.98 209.377 1076.98C210.982 1076.98 212.398 1076.64 213.625 1075.96C214.852 1075.28 215.825 1074.45 216.542 1073.47C217.278 1072.49 217.675 1071.53 217.731 1070.61L219.969 1073.13C219.837 1073.92 219.478 1074.8 218.893 1075.76C218.307 1076.72 217.524 1077.65 216.542 1078.54C215.579 1079.4 214.427 1080.13 213.087 1080.72C211.765 1081.28 210.274 1081.57 208.612 1081.57C206.535 1081.57 204.714 1081.16 203.146 1080.35C201.598 1079.54 200.39 1078.45 199.521 1077.09C198.672 1075.71 198.247 1074.17 198.247 1072.48C198.247 1070.83 198.568 1069.39 199.21 1068.14C199.852 1066.88 200.777 1065.83 201.985 1065C203.194 1064.15 204.647 1063.51 206.347 1063.07C208.046 1062.64 209.943 1062.42 212.039 1062.42H218.128ZM250.017 1075.05V1037.5H255.284V1081H250.47L250.017 1075.05ZM229.399 1066.02V1065.42C229.399 1063.08 229.683 1060.96 230.249 1059.05C230.834 1057.13 231.656 1055.47 232.713 1054.1C233.789 1052.72 235.063 1051.66 236.536 1050.92C238.028 1050.17 239.689 1049.79 241.521 1049.79C243.446 1049.79 245.127 1050.13 246.562 1050.81C248.015 1051.47 249.243 1052.44 250.243 1053.73C251.263 1054.99 252.065 1056.52 252.65 1058.32C253.236 1060.11 253.642 1062.14 253.868 1064.4V1067.01C253.66 1069.26 253.255 1071.28 252.65 1073.07C252.065 1074.86 251.263 1076.39 250.243 1077.66C249.243 1078.92 248.015 1079.9 246.562 1080.58C245.108 1081.24 243.409 1081.57 241.464 1081.57C239.67 1081.57 238.028 1081.18 236.536 1080.41C235.063 1079.63 233.789 1078.55 232.713 1077.15C231.656 1075.75 230.834 1074.11 230.249 1072.22C229.683 1070.31 229.399 1068.25 229.399 1066.02ZM234.667 1065.42V1066.02C234.667 1067.55 234.818 1068.98 235.12 1070.32C235.441 1071.66 235.932 1072.84 236.593 1073.86C237.254 1074.88 238.094 1075.69 239.113 1076.27C240.133 1076.84 241.351 1077.12 242.767 1077.12C244.504 1077.12 245.929 1076.75 247.043 1076.02C248.176 1075.28 249.082 1074.31 249.762 1073.1C250.441 1071.89 250.97 1070.58 251.348 1069.16V1062.34C251.121 1061.3 250.791 1060.3 250.356 1059.33C249.941 1058.35 249.394 1057.48 248.714 1056.73C248.053 1055.96 247.232 1055.34 246.25 1054.89C245.287 1054.44 244.145 1054.21 242.823 1054.21C241.388 1054.21 240.152 1054.51 239.113 1055.12C238.094 1055.7 237.254 1056.51 236.593 1057.55C235.932 1058.57 235.441 1059.76 235.12 1061.12C234.818 1062.46 234.667 1063.89 234.667 1065.42ZM269.133 1050.36V1081H263.865V1050.36H269.133ZM263.469 1042.23C263.469 1041.38 263.724 1040.66 264.233 1040.08C264.762 1039.49 265.536 1039.2 266.556 1039.2C267.556 1039.2 268.321 1039.49 268.85 1040.08C269.397 1040.66 269.671 1041.38 269.671 1042.23C269.671 1043.04 269.397 1043.74 268.85 1044.33C268.321 1044.89 267.556 1045.17 266.556 1045.17C265.536 1045.17 264.762 1044.89 264.233 1044.33C263.724 1043.74 263.469 1043.04 263.469 1042.23ZM282.783 1056.9V1081H277.544V1050.36H282.5L282.783 1056.9ZM281.537 1064.52L279.356 1064.43C279.375 1062.34 279.687 1060.4 280.291 1058.63C280.895 1056.83 281.745 1055.28 282.84 1053.95C283.935 1052.63 285.238 1051.61 286.748 1050.9C288.277 1050.16 289.967 1049.79 291.817 1049.79C293.328 1049.79 294.687 1050 295.896 1050.41C297.104 1050.81 298.133 1051.45 298.982 1052.34C299.851 1053.23 300.512 1054.38 300.965 1055.79C301.418 1057.19 301.645 1058.9 301.645 1060.92V1081H296.377V1060.86C296.377 1059.26 296.141 1057.98 295.669 1057.01C295.197 1056.03 294.508 1055.32 293.602 1054.89C292.695 1054.44 291.581 1054.21 290.26 1054.21C288.957 1054.21 287.768 1054.48 286.691 1055.03C285.634 1055.58 284.718 1056.33 283.944 1057.3C283.189 1058.26 282.594 1059.36 282.16 1060.61C281.745 1061.84 281.537 1063.14 281.537 1064.52ZM329.455 1050.36H334.213V1080.35C334.213 1083.05 333.665 1085.35 332.57 1087.26C331.475 1089.17 329.946 1090.61 327.982 1091.59C326.038 1092.59 323.791 1093.09 321.242 1093.09C320.185 1093.09 318.939 1092.92 317.504 1092.58C316.088 1092.26 314.691 1091.71 313.312 1090.91C311.953 1090.14 310.811 1089.09 309.886 1087.77L312.633 1084.65C313.917 1086.2 315.257 1087.28 316.654 1087.88C318.07 1088.49 319.467 1088.79 320.846 1088.79C322.507 1088.79 323.942 1088.48 325.15 1087.85C326.359 1087.23 327.293 1086.31 327.954 1085.08C328.634 1083.87 328.974 1082.38 328.974 1080.6V1057.1L329.455 1050.36ZM308.356 1066.02V1065.42C308.356 1063.08 308.63 1060.96 309.178 1059.05C309.744 1057.13 310.547 1055.47 311.585 1054.1C312.642 1052.72 313.917 1051.66 315.408 1050.92C316.9 1050.17 318.58 1049.79 320.449 1049.79C322.375 1049.79 324.055 1050.13 325.49 1050.81C326.944 1051.47 328.171 1052.44 329.172 1053.73C330.191 1054.99 330.994 1056.52 331.579 1058.32C332.164 1060.11 332.57 1062.14 332.797 1064.4V1067.01C332.589 1069.26 332.183 1071.28 331.579 1073.07C330.994 1074.86 330.191 1076.39 329.172 1077.66C328.171 1078.92 326.944 1079.9 325.49 1080.58C324.036 1081.24 322.337 1081.57 320.393 1081.57C318.561 1081.57 316.9 1081.18 315.408 1080.41C313.936 1079.63 312.671 1078.55 311.613 1077.15C310.556 1075.75 309.744 1074.11 309.178 1072.22C308.63 1070.31 308.356 1068.25 308.356 1066.02ZM313.596 1065.42V1066.02C313.596 1067.55 313.747 1068.98 314.049 1070.32C314.37 1071.66 314.851 1072.84 315.493 1073.86C316.154 1074.88 316.994 1075.69 318.014 1076.27C319.033 1076.84 320.251 1077.12 321.667 1077.12C323.404 1077.12 324.839 1076.75 325.972 1076.02C327.104 1075.28 328.001 1074.31 328.662 1073.1C329.342 1071.89 329.87 1070.58 330.248 1069.16V1062.34C330.04 1061.3 329.719 1060.3 329.285 1059.33C328.87 1058.35 328.322 1057.48 327.643 1056.73C326.982 1055.96 326.16 1055.34 325.179 1054.89C324.197 1054.44 323.045 1054.21 321.724 1054.21C320.289 1054.21 319.052 1054.51 318.014 1055.12C316.994 1055.7 316.154 1056.51 315.493 1057.55C314.851 1058.57 314.37 1059.76 314.049 1061.12C313.747 1062.46 313.596 1063.89 313.596 1065.42ZM383.858 1067.12V1071.43H354.065V1068.34L372.53 1039.77H376.807L372.219 1048.04L360.013 1067.12H383.858ZM378.109 1039.77V1081H372.87V1039.77H378.109Z" fill="white"/>
<path d="M166.75 956.578V962.711H135.969V956.578H166.75ZM137.141 932.125V989H129.602V932.125H137.141ZM173.312 932.125V989H165.812V932.125H173.312ZM203.156 989.781C200.214 989.781 197.544 989.286 195.148 988.297C192.779 987.281 190.734 985.862 189.016 984.039C187.323 982.216 186.021 980.055 185.109 977.555C184.198 975.055 183.742 972.32 183.742 969.352V967.711C183.742 964.273 184.25 961.214 185.266 958.531C186.281 955.823 187.661 953.531 189.406 951.656C191.151 949.781 193.13 948.362 195.344 947.398C197.557 946.435 199.849 945.953 202.219 945.953C205.24 945.953 207.844 946.474 210.031 947.516C212.245 948.557 214.055 950.016 215.461 951.891C216.867 953.74 217.909 955.927 218.586 958.453C219.263 960.953 219.602 963.688 219.602 966.656V969.898H188.039V964H212.375V963.453C212.271 961.578 211.88 959.755 211.203 957.984C210.552 956.214 209.51 954.755 208.078 953.609C206.646 952.464 204.693 951.891 202.219 951.891C200.578 951.891 199.068 952.242 197.688 952.945C196.307 953.622 195.122 954.638 194.133 955.992C193.143 957.346 192.375 959 191.828 960.953C191.281 962.906 191.008 965.159 191.008 967.711V969.352C191.008 971.357 191.281 973.245 191.828 975.016C192.401 976.76 193.221 978.297 194.289 979.625C195.383 980.953 196.698 981.995 198.234 982.75C199.797 983.505 201.568 983.883 203.547 983.883C206.099 983.883 208.26 983.362 210.031 982.32C211.802 981.279 213.352 979.885 214.68 978.141L219.055 981.617C218.143 982.997 216.984 984.312 215.578 985.562C214.172 986.812 212.44 987.828 210.383 988.609C208.352 989.391 205.943 989.781 203.156 989.781ZM252.961 981.773V960.016C252.961 958.349 252.622 956.904 251.945 955.68C251.294 954.43 250.305 953.466 248.977 952.789C247.648 952.112 246.008 951.773 244.055 951.773C242.232 951.773 240.63 952.086 239.25 952.711C237.896 953.336 236.828 954.156 236.047 955.172C235.292 956.188 234.914 957.281 234.914 958.453H227.688C227.688 956.943 228.078 955.445 228.859 953.961C229.641 952.477 230.76 951.135 232.219 949.938C233.703 948.714 235.474 947.75 237.531 947.047C239.615 946.318 241.932 945.953 244.484 945.953C247.557 945.953 250.266 946.474 252.609 947.516C254.979 948.557 256.828 950.133 258.156 952.242C259.51 954.326 260.188 956.943 260.188 960.094V979.781C260.188 981.188 260.305 982.685 260.539 984.273C260.799 985.862 261.177 987.229 261.672 988.375V989H254.133C253.768 988.167 253.482 987.06 253.273 985.68C253.065 984.273 252.961 982.971 252.961 981.773ZM254.211 963.375L254.289 968.453H246.984C244.927 968.453 243.091 968.622 241.477 968.961C239.862 969.273 238.508 969.755 237.414 970.406C236.32 971.057 235.487 971.878 234.914 972.867C234.341 973.831 234.055 974.964 234.055 976.266C234.055 977.594 234.354 978.805 234.953 979.898C235.552 980.992 236.451 981.865 237.648 982.516C238.872 983.141 240.37 983.453 242.141 983.453C244.354 983.453 246.307 982.984 248 982.047C249.693 981.109 251.034 979.964 252.023 978.609C253.039 977.255 253.586 975.94 253.664 974.664L256.75 978.141C256.568 979.234 256.073 980.445 255.266 981.773C254.458 983.102 253.378 984.378 252.023 985.602C250.695 986.799 249.107 987.802 247.258 988.609C245.435 989.391 243.378 989.781 241.086 989.781C238.221 989.781 235.708 989.221 233.547 988.102C231.411 986.982 229.745 985.484 228.547 983.609C227.375 981.708 226.789 979.586 226.789 977.242C226.789 974.977 227.232 972.984 228.117 971.266C229.003 969.521 230.279 968.076 231.945 966.93C233.612 965.758 235.617 964.872 237.961 964.273C240.305 963.674 242.922 963.375 245.812 963.375H254.211ZM298.195 980.797V929H305.461V989H298.82L298.195 980.797ZM269.758 968.336V967.516C269.758 964.286 270.148 961.357 270.93 958.727C271.737 956.07 272.87 953.792 274.328 951.891C275.812 949.99 277.57 948.531 279.602 947.516C281.659 946.474 283.951 945.953 286.477 945.953C289.133 945.953 291.451 946.422 293.43 947.359C295.435 948.271 297.128 949.612 298.508 951.383C299.914 953.128 301.021 955.237 301.828 957.711C302.635 960.185 303.195 962.984 303.508 966.109V969.703C303.221 972.802 302.661 975.589 301.828 978.062C301.021 980.536 299.914 982.646 298.508 984.391C297.128 986.135 295.435 987.477 293.43 988.414C291.424 989.326 289.081 989.781 286.398 989.781C283.924 989.781 281.659 989.247 279.602 988.18C277.57 987.112 275.812 985.615 274.328 983.688C272.87 981.76 271.737 979.495 270.93 976.891C270.148 974.26 269.758 971.409 269.758 968.336ZM277.023 967.516V968.336C277.023 970.445 277.232 972.424 277.648 974.273C278.091 976.122 278.768 977.75 279.68 979.156C280.591 980.562 281.75 981.669 283.156 982.477C284.562 983.258 286.242 983.648 288.195 983.648C290.591 983.648 292.557 983.141 294.094 982.125C295.656 981.109 296.906 979.768 297.844 978.102C298.781 976.435 299.51 974.625 300.031 972.672V963.258C299.719 961.826 299.263 960.445 298.664 959.117C298.091 957.763 297.336 956.565 296.398 955.523C295.487 954.456 294.354 953.609 293 952.984C291.672 952.359 290.096 952.047 288.273 952.047C286.294 952.047 284.589 952.464 283.156 953.297C281.75 954.104 280.591 955.224 279.68 956.656C278.768 958.062 278.091 959.703 277.648 961.578C277.232 963.427 277.023 965.406 277.023 967.516ZM324.562 946.734V989H317.297V946.734H324.562ZM316.75 935.523C316.75 934.352 317.102 933.362 317.805 932.555C318.534 931.747 319.602 931.344 321.008 931.344C322.388 931.344 323.443 931.747 324.172 932.555C324.927 933.362 325.305 934.352 325.305 935.523C325.305 936.643 324.927 937.607 324.172 938.414C323.443 939.195 322.388 939.586 321.008 939.586C319.602 939.586 318.534 939.195 317.805 938.414C317.102 937.607 316.75 936.643 316.75 935.523ZM343.391 955.758V989H336.164V946.734H343L343.391 955.758ZM341.672 966.266L338.664 966.148C338.69 963.258 339.12 960.589 339.953 958.141C340.786 955.667 341.958 953.518 343.469 951.695C344.979 949.872 346.776 948.466 348.859 947.477C350.969 946.461 353.299 945.953 355.852 945.953C357.935 945.953 359.81 946.24 361.477 946.812C363.143 947.359 364.562 948.245 365.734 949.469C366.932 950.693 367.844 952.281 368.469 954.234C369.094 956.161 369.406 958.518 369.406 961.305V989H362.141V961.227C362.141 959.013 361.815 957.242 361.164 955.914C360.513 954.56 359.562 953.583 358.312 952.984C357.062 952.359 355.526 952.047 353.703 952.047C351.906 952.047 350.266 952.424 348.781 953.18C347.323 953.935 346.06 954.977 344.992 956.305C343.951 957.633 343.13 959.156 342.531 960.875C341.958 962.568 341.672 964.365 341.672 966.266ZM407.766 946.734H414.328V988.102C414.328 991.826 413.573 995.003 412.062 997.633C410.552 1000.26 408.443 1002.26 405.734 1003.61C403.052 1004.99 399.953 1005.68 396.438 1005.68C394.979 1005.68 393.26 1005.45 391.281 1004.98C389.328 1004.53 387.401 1003.77 385.5 1002.67C383.625 1001.6 382.049 1000.16 380.773 998.336L384.562 994.039C386.333 996.174 388.182 997.659 390.109 998.492C392.062 999.326 393.99 999.742 395.891 999.742C398.182 999.742 400.161 999.312 401.828 998.453C403.495 997.594 404.784 996.318 405.695 994.625C406.633 992.958 407.102 990.901 407.102 988.453V956.031L407.766 946.734ZM378.664 968.336V967.516C378.664 964.286 379.042 961.357 379.797 958.727C380.578 956.07 381.685 953.792 383.117 951.891C384.576 949.99 386.333 948.531 388.391 947.516C390.448 946.474 392.766 945.953 395.344 945.953C398 945.953 400.318 946.422 402.297 947.359C404.302 948.271 405.995 949.612 407.375 951.383C408.781 953.128 409.888 955.237 410.695 957.711C411.503 960.185 412.062 962.984 412.375 966.109V969.703C412.089 972.802 411.529 975.589 410.695 978.062C409.888 980.536 408.781 982.646 407.375 984.391C405.995 986.135 404.302 987.477 402.297 988.414C400.292 989.326 397.948 989.781 395.266 989.781C392.74 989.781 390.448 989.247 388.391 988.18C386.359 987.112 384.615 985.615 383.156 983.688C381.698 981.76 380.578 979.495 379.797 976.891C379.042 974.26 378.664 971.409 378.664 968.336ZM385.891 967.516V968.336C385.891 970.445 386.099 972.424 386.516 974.273C386.958 976.122 387.622 977.75 388.508 979.156C389.419 980.562 390.578 981.669 391.984 982.477C393.391 983.258 395.07 983.648 397.023 983.648C399.419 983.648 401.398 983.141 402.961 982.125C404.523 981.109 405.76 979.768 406.672 978.102C407.609 976.435 408.339 974.625 408.859 972.672V963.258C408.573 961.826 408.13 960.445 407.531 959.117C406.958 957.763 406.203 956.565 405.266 955.523C404.354 954.456 403.221 953.609 401.867 952.984C400.513 952.359 398.924 952.047 397.102 952.047C395.122 952.047 393.417 952.464 391.984 953.297C390.578 954.104 389.419 955.224 388.508 956.656C387.622 958.062 386.958 959.703 386.516 961.578C386.099 963.427 385.891 965.406 385.891 967.516ZM454.914 957.008H460.07C462.596 957.008 464.68 956.591 466.32 955.758C467.987 954.898 469.224 953.74 470.031 952.281C470.865 950.797 471.281 949.13 471.281 947.281C471.281 945.094 470.917 943.258 470.188 941.773C469.458 940.289 468.365 939.169 466.906 938.414C465.448 937.659 463.599 937.281 461.359 937.281C459.328 937.281 457.531 937.685 455.969 938.492C454.432 939.273 453.221 940.393 452.336 941.852C451.477 943.31 451.047 945.029 451.047 947.008H443.82C443.82 944.117 444.549 941.487 446.008 939.117C447.466 936.747 449.51 934.859 452.141 933.453C454.797 932.047 457.87 931.344 461.359 931.344C464.797 931.344 467.805 931.956 470.383 933.18C472.961 934.378 474.966 936.174 476.398 938.57C477.831 940.94 478.547 943.896 478.547 947.438C478.547 948.87 478.208 950.406 477.531 952.047C476.88 953.661 475.852 955.172 474.445 956.578C473.065 957.984 471.268 959.143 469.055 960.055C466.841 960.94 464.185 961.383 461.086 961.383H454.914V957.008ZM454.914 962.945V958.609H461.086C464.706 958.609 467.701 959.039 470.07 959.898C472.44 960.758 474.302 961.904 475.656 963.336C477.036 964.768 478 966.344 478.547 968.062C479.12 969.755 479.406 971.448 479.406 973.141C479.406 975.797 478.951 978.154 478.039 980.211C477.154 982.268 475.891 984.013 474.25 985.445C472.635 986.878 470.734 987.958 468.547 988.688C466.359 989.417 463.977 989.781 461.398 989.781C458.924 989.781 456.594 989.43 454.406 988.727C452.245 988.023 450.331 987.008 448.664 985.68C446.997 984.326 445.695 982.672 444.758 980.719C443.82 978.74 443.352 976.487 443.352 973.961H450.578C450.578 975.94 451.008 977.672 451.867 979.156C452.753 980.641 454.003 981.799 455.617 982.633C457.258 983.44 459.185 983.844 461.398 983.844C463.612 983.844 465.513 983.466 467.102 982.711C468.716 981.93 469.953 980.758 470.812 979.195C471.698 977.633 472.141 975.667 472.141 973.297C472.141 970.927 471.646 968.987 470.656 967.477C469.667 965.94 468.26 964.807 466.438 964.078C464.641 963.323 462.518 962.945 460.07 962.945H454.914Z" fill="white"/>
<path d="M183.156 828.42V836.853H140.832V828.42H183.156ZM142.443 794.797V873H132.077V794.797H142.443ZM192.18 794.797V873H181.867V794.797H192.18ZM233.215 874.074C229.169 874.074 225.498 873.394 222.204 872.033C218.946 870.637 216.135 868.685 213.771 866.179C211.444 863.672 209.654 860.7 208.4 857.263C207.147 853.825 206.521 850.065 206.521 845.983V843.728C206.521 839.001 207.219 834.794 208.615 831.105C210.012 827.382 211.91 824.23 214.309 821.652C216.708 819.074 219.429 817.123 222.473 815.798C225.516 814.473 228.667 813.811 231.926 813.811C236.079 813.811 239.66 814.527 242.668 815.959C245.712 817.391 248.2 819.396 250.134 821.975C252.067 824.517 253.5 827.525 254.431 830.998C255.362 834.436 255.827 838.195 255.827 842.277V846.735H212.429V838.625H245.891V837.873C245.747 835.295 245.21 832.788 244.279 830.354C243.384 827.919 241.952 825.913 239.982 824.338C238.013 822.762 235.327 821.975 231.926 821.975C229.67 821.975 227.593 822.458 225.695 823.425C223.798 824.356 222.168 825.752 220.808 827.614C219.447 829.476 218.391 831.75 217.639 834.436C216.887 837.121 216.511 840.218 216.511 843.728V845.983C216.511 848.741 216.887 851.337 217.639 853.771C218.426 856.171 219.554 858.283 221.022 860.109C222.526 861.936 224.335 863.368 226.447 864.406C228.596 865.445 231.031 865.964 233.752 865.964C237.261 865.964 240.233 865.248 242.668 863.815C245.103 862.383 247.233 860.467 249.06 858.068L255.075 862.849C253.822 864.746 252.229 866.555 250.295 868.273C248.361 869.992 245.98 871.389 243.151 872.463C240.358 873.537 237.046 874.074 233.215 874.074ZM301.696 863.063V833.146C301.696 830.855 301.231 828.868 300.3 827.185C299.405 825.466 298.044 824.141 296.218 823.21C294.392 822.279 292.136 821.813 289.45 821.813C286.944 821.813 284.742 822.243 282.844 823.103C280.982 823.962 279.514 825.09 278.439 826.486C277.401 827.883 276.882 829.387 276.882 830.998H266.945C266.945 828.921 267.482 826.862 268.557 824.821C269.631 822.78 271.171 820.936 273.176 819.289C275.217 817.606 277.652 816.281 280.48 815.314C283.345 814.312 286.532 813.811 290.041 813.811C294.266 813.811 297.99 814.527 301.213 815.959C304.471 817.391 307.014 819.558 308.84 822.458C310.702 825.323 311.633 828.921 311.633 833.254V860.324C311.633 862.258 311.794 864.317 312.116 866.501C312.474 868.685 312.993 870.565 313.674 872.141V873H303.308C302.806 871.854 302.412 870.332 302.126 868.435C301.84 866.501 301.696 864.711 301.696 863.063ZM303.415 837.766L303.522 844.748H293.479C290.65 844.748 288.125 844.981 285.905 845.446C283.685 845.876 281.823 846.538 280.319 847.434C278.815 848.329 277.67 849.457 276.882 850.817C276.094 852.142 275.7 853.7 275.7 855.49C275.7 857.316 276.112 858.981 276.936 860.485C277.759 861.989 278.994 863.189 280.642 864.084C282.325 864.943 284.383 865.373 286.818 865.373C289.862 865.373 292.548 864.729 294.875 863.439C297.202 862.15 299.047 860.575 300.407 858.713C301.804 856.851 302.556 855.043 302.663 853.288L306.906 858.068C306.656 859.572 305.975 861.237 304.865 863.063C303.755 864.89 302.269 866.644 300.407 868.327C298.581 869.974 296.397 871.353 293.854 872.463C291.348 873.537 288.519 874.074 285.368 874.074C281.429 874.074 277.974 873.304 275.002 871.765C272.066 870.225 269.774 868.166 268.127 865.588C266.516 862.974 265.71 860.056 265.71 856.833C265.71 853.718 266.319 850.979 267.536 848.615C268.754 846.216 270.508 844.229 272.8 842.653C275.091 841.042 277.849 839.825 281.071 839.001C284.294 838.177 287.893 837.766 291.867 837.766H303.415ZM363.894 861.721V790.5H373.884V873H364.753L363.894 861.721ZM324.792 844.587V843.459C324.792 839.019 325.329 834.991 326.403 831.374C327.513 827.722 329.071 824.589 331.076 821.975C333.117 819.361 335.534 817.355 338.327 815.959C341.156 814.527 344.307 813.811 347.78 813.811C351.433 813.811 354.619 814.455 357.341 815.744C360.098 816.997 362.425 818.841 364.323 821.276C366.257 823.675 367.779 826.576 368.889 829.978C369.999 833.379 370.769 837.229 371.198 841.525V846.467C370.804 850.728 370.035 854.559 368.889 857.961C367.779 861.363 366.257 864.263 364.323 866.662C362.425 869.061 360.098 870.905 357.341 872.194C354.584 873.448 351.361 874.074 347.673 874.074C344.271 874.074 341.156 873.34 338.327 871.872C335.534 870.404 333.117 868.345 331.076 865.695C329.071 863.046 327.513 859.93 326.403 856.35C325.329 852.733 324.792 848.812 324.792 844.587ZM334.782 843.459V844.587C334.782 847.487 335.069 850.209 335.642 852.751C336.25 855.293 337.181 857.531 338.435 859.465C339.688 861.398 341.281 862.92 343.215 864.03C345.148 865.104 347.458 865.642 350.144 865.642C353.438 865.642 356.141 864.943 358.254 863.547C360.402 862.15 362.121 860.306 363.41 858.015C364.699 855.723 365.702 853.234 366.418 850.549V837.604C365.988 835.635 365.362 833.737 364.538 831.911C363.75 830.049 362.712 828.402 361.423 826.97C360.17 825.502 358.612 824.338 356.75 823.479C354.924 822.619 352.757 822.189 350.251 822.189C347.53 822.189 345.184 822.762 343.215 823.908C341.281 825.018 339.688 826.558 338.435 828.527C337.181 830.461 336.25 832.717 335.642 835.295C335.069 837.837 334.782 840.559 334.782 843.459ZM400.148 814.885V873H390.158V814.885H400.148ZM389.406 799.47C389.406 797.858 389.89 796.498 390.856 795.388C391.859 794.278 393.327 793.723 395.261 793.723C397.159 793.723 398.609 794.278 399.611 795.388C400.65 796.498 401.169 797.858 401.169 799.47C401.169 801.009 400.65 802.334 399.611 803.444C398.609 804.519 397.159 805.056 395.261 805.056C393.327 805.056 391.859 804.519 390.856 803.444C389.89 802.334 389.406 801.009 389.406 799.47ZM426.037 827.292V873H416.101V814.885H425.5L426.037 827.292ZM423.674 841.74L419.538 841.579C419.574 837.604 420.165 833.934 421.311 830.568C422.456 827.167 424.068 824.213 426.145 821.706C428.221 819.2 430.692 817.266 433.557 815.905C436.457 814.509 439.662 813.811 443.171 813.811C446.035 813.811 448.614 814.204 450.905 814.992C453.197 815.744 455.148 816.962 456.76 818.645C458.407 820.327 459.66 822.512 460.52 825.197C461.379 827.847 461.809 831.088 461.809 834.919V873H451.818V834.812C451.818 831.768 451.371 829.333 450.476 827.507C449.58 825.645 448.273 824.302 446.555 823.479C444.836 822.619 442.723 822.189 440.217 822.189C437.746 822.189 435.49 822.709 433.449 823.747C431.444 824.785 429.707 826.218 428.239 828.044C426.807 829.87 425.679 831.965 424.855 834.328C424.068 836.656 423.674 839.126 423.674 841.74ZM514.553 814.885H523.576V871.765C523.576 876.885 522.538 881.254 520.461 884.87C518.384 888.487 515.484 891.226 511.76 893.088C508.072 894.986 503.811 895.935 498.977 895.935C496.971 895.935 494.608 895.612 491.887 894.968C489.201 894.359 486.551 893.303 483.938 891.799C481.359 890.331 479.193 888.343 477.438 885.837L482.648 879.929C485.083 882.865 487.626 884.906 490.275 886.052C492.961 887.198 495.611 887.771 498.225 887.771C501.376 887.771 504.097 887.18 506.389 885.998C508.68 884.816 510.453 883.062 511.706 880.734C512.995 878.443 513.64 875.614 513.64 872.248V827.668L514.553 814.885ZM474.538 844.587V843.459C474.538 839.019 475.057 834.991 476.096 831.374C477.17 827.722 478.692 824.589 480.661 821.975C482.666 819.361 485.083 817.355 487.912 815.959C490.741 814.527 493.928 813.811 497.473 813.811C501.125 813.811 504.312 814.455 507.033 815.744C509.79 816.997 512.118 818.841 514.016 821.276C515.949 823.675 517.471 826.576 518.581 829.978C519.691 833.379 520.461 837.229 520.891 841.525V846.467C520.497 850.728 519.727 854.559 518.581 857.961C517.471 861.363 515.949 864.263 514.016 866.662C512.118 869.061 509.79 870.905 507.033 872.194C504.276 873.448 501.053 874.074 497.365 874.074C493.892 874.074 490.741 873.34 487.912 871.872C485.119 870.404 482.72 868.345 480.715 865.695C478.71 863.046 477.17 859.93 476.096 856.35C475.057 852.733 474.538 848.812 474.538 844.587ZM484.475 843.459V844.587C484.475 847.487 484.761 850.209 485.334 852.751C485.943 855.293 486.856 857.531 488.073 859.465C489.326 861.398 490.92 862.92 492.854 864.03C494.787 865.104 497.097 865.642 499.782 865.642C503.076 865.642 505.798 864.943 507.946 863.547C510.095 862.15 511.796 860.306 513.049 858.015C514.338 855.723 515.34 853.234 516.057 850.549V837.604C515.663 835.635 515.054 833.737 514.23 831.911C513.443 830.049 512.404 828.402 511.115 826.97C509.862 825.502 508.304 824.338 506.442 823.479C504.58 822.619 502.396 822.189 499.89 822.189C497.168 822.189 494.823 822.762 492.854 823.908C490.92 825.018 489.326 826.558 488.073 828.527C486.856 830.461 485.943 832.717 485.334 835.295C484.761 837.837 484.475 840.559 484.475 843.459ZM616.12 864.836V873H564.934V865.856L590.554 837.336C593.705 833.827 596.14 830.855 597.858 828.42C599.613 825.949 600.83 823.747 601.511 821.813C602.227 819.844 602.585 817.839 602.585 815.798C602.585 813.22 602.048 810.892 600.974 808.815C599.935 806.703 598.396 805.02 596.354 803.767C594.313 802.513 591.843 801.887 588.942 801.887C585.469 801.887 582.569 802.567 580.241 803.928C577.95 805.253 576.231 807.115 575.085 809.514C573.939 811.913 573.366 814.67 573.366 817.785H563.43C563.43 813.381 564.396 809.353 566.33 805.7C568.264 802.048 571.128 799.147 574.924 796.999C578.719 794.815 583.392 793.723 588.942 793.723C593.884 793.723 598.109 794.6 601.618 796.354C605.127 798.073 607.813 800.508 609.675 803.659C611.573 806.774 612.521 810.427 612.521 814.616C612.521 816.908 612.128 819.235 611.34 821.599C610.588 823.926 609.532 826.254 608.171 828.581C606.846 830.909 605.288 833.2 603.498 835.456C601.743 837.712 599.864 839.932 597.858 842.116L576.911 864.836H616.12Z" fill="white"/>
<defs>
<filter id="filter0_d_67_7" x="119" y="319" width="161.013" height="160" filterUnits="userSpaceOnUse" color-interpolation-filters="sRGB">
<feFlood flood-opacity="0" result="BackgroundImageFix"/>
<feColorMatrix in="SourceAlpha" type="matrix" values="0 0 0 0 0 0 0 0 0 0 0 0 0 0 0 0 0 0 127 0" result="hardAlpha"/>
<feOffset dy="4"/>
<feGaussianBlur stdDeviation="2"/>
<feComposite in2="hardAlpha" operator="out"/>
<feColorMatrix type="matrix" values="0 0 0 0 0 0 0 0 0 0 0 0 0 0 0 0 0 0 0.25 0"/>
<feBlend mode="normal" in2="BackgroundImageFix" result="effect1_dropShadow_67_7"/>
<feBlend mode="normal" in="SourceGraphic" in2="effect1_dropShadow_67_7" result="shape"/>
</filter>
</defs>
</svg>
