<svg width="16" height="16" viewBox="0 0 16 16" fill="none" xmlns="http://www.w3.org/2000/svg">
<path d="M15.0575 5.48C15.0575 5.48 15.0575 5.48 15.0575 5.4425C14.529 3.99967 13.5702 2.75397 12.3106 1.8739C11.051 0.993835 9.55156 0.521881 8.01499 0.521881C6.47843 0.521881 4.97894 0.993835 3.71938 1.8739C2.45981 2.75397 1.50094 3.99967 0.972494 5.4425C0.972494 5.4425 0.972494 5.4425 0.972494 5.48C0.382338 7.10817 0.382338 8.89183 0.972494 10.52C0.972494 10.52 0.972494 10.52 0.972494 10.5575C1.50094 12.0003 2.45981 13.246 3.71938 14.1261C4.97894 15.0062 6.47843 15.4781 8.01499 15.4781C9.55156 15.4781 11.051 15.0062 12.3106 14.1261C13.5702 13.246 14.529 12.0003 15.0575 10.5575C15.0575 10.5575 15.0575 10.5575 15.0575 10.52C15.6476 8.89183 15.6476 7.10817 15.0575 5.48ZM2.19499 9.5C1.93491 8.51691 1.93491 7.48309 2.19499 6.5H3.58999C3.47002 7.4964 3.47002 8.5036 3.58999 9.5H2.19499ZM2.80999 11H3.85999C4.03603 11.6689 4.28765 12.3155 4.60999 12.9275C3.87447 12.4265 3.25962 11.768 2.80999 11ZM3.85999 5H2.80999C3.25315 4.23432 3.86014 3.5761 4.58749 3.0725C4.27291 3.68544 4.02885 4.33207 3.85999 5ZM7.24999 13.775C6.32882 13.099 5.68186 12.1139 5.42749 11H7.24999V13.775ZM7.24999 9.5H5.10499C4.96504 8.5049 4.96504 7.49511 5.10499 6.5H7.24999V9.5ZM7.24999 5H5.42749C5.68186 3.88608 6.32882 2.90099 7.24999 2.225V5ZM13.19 5H12.14C11.964 4.33112 11.7123 3.68446 11.39 3.0725C12.1255 3.57355 12.7404 4.23196 13.19 5ZM8.74999 2.225C9.67117 2.90099 10.3181 3.88608 10.5725 5H8.74999V2.225ZM8.74999 13.775V11H10.5725C10.3181 12.1139 9.67117 13.099 8.74999 13.775ZM10.895 9.5H8.74999V6.5H10.895C11.035 7.49511 11.035 8.5049 10.895 9.5ZM11.4125 12.9275C11.7348 12.3155 11.9865 11.6689 12.1625 11H13.2125C12.7629 11.768 12.148 12.4265 11.4125 12.9275ZM13.805 9.5H12.41C12.471 9.00235 12.501 8.50138 12.5 8C12.5008 7.49863 12.4708 6.99768 12.41 6.5H13.805C14.0651 7.48309 14.0651 8.51691 13.805 9.5Z" fill="#5372F0"/>
</svg>
